%TF.GenerationSoftware,KiCad,Pcbnew,9.0.0*%
%TF.CreationDate,2025-09-16T23:46:19+02:00*%
%TF.ProjectId,flipper-mce,666c6970-7065-4722-9d6d-63652e6b6963,rev?*%
%TF.SameCoordinates,Original*%
%TF.FileFunction,Copper,L2,Bot*%
%TF.FilePolarity,Positive*%
%FSLAX46Y46*%
G04 Gerber Fmt 4.6, Leading zero omitted, Abs format (unit mm)*
G04 Created by KiCad (PCBNEW 9.0.0) date 2025-09-16 23:46:19*
%MOMM*%
%LPD*%
G01*
G04 APERTURE LIST*
%TA.AperFunction,NonConductor*%
%ADD10C,0.200000*%
%TD*%
%TA.AperFunction,ComponentPad*%
%ADD11C,0.600000*%
%TD*%
%TA.AperFunction,ComponentPad*%
%ADD12O,1.000000X2.100000*%
%TD*%
%TA.AperFunction,ComponentPad*%
%ADD13O,1.000000X1.600000*%
%TD*%
%TA.AperFunction,SMDPad,CuDef*%
%ADD14C,1.000000*%
%TD*%
%TA.AperFunction,ViaPad*%
%ADD15C,0.500000*%
%TD*%
%TA.AperFunction,ViaPad*%
%ADD16C,0.600000*%
%TD*%
%TA.AperFunction,Conductor*%
%ADD17C,0.300000*%
%TD*%
%TA.AperFunction,Conductor*%
%ADD18C,0.500000*%
%TD*%
%TA.AperFunction,Conductor*%
%ADD19C,0.381000*%
%TD*%
%TA.AperFunction,Conductor*%
%ADD20C,0.600000*%
%TD*%
%TA.AperFunction,Conductor*%
%ADD21C,0.180000*%
%TD*%
%TA.AperFunction,Conductor*%
%ADD22C,0.200000*%
%TD*%
%TA.AperFunction,Conductor*%
%ADD23C,0.152400*%
%TD*%
G04 APERTURE END LIST*
D10*
X197000000Y-114500000D02*
X179700000Y-114400000D01*
X179700000Y-106900000D01*
X197000000Y-106900000D01*
X197000000Y-114500000D01*
%TA.AperFunction,NonConductor*%
G36*
X197000000Y-114500000D02*
G01*
X179700000Y-114400000D01*
X179700000Y-106900000D01*
X197000000Y-106900000D01*
X197000000Y-114500000D01*
G37*
%TD.AperFunction*%
D11*
%TO.P,U3,57,GND*%
%TO.N,GND*%
X181655000Y-92877000D03*
X181655000Y-94152000D03*
X181655000Y-95427000D03*
X182930000Y-92877000D03*
X182930000Y-94152000D03*
X182930000Y-95427000D03*
X184205000Y-92877000D03*
X184205000Y-94152000D03*
X184205000Y-95427000D03*
%TD*%
D12*
%TO.P,J3,S1,SHIELD*%
%TO.N,GND*%
X192720000Y-62108000D03*
D13*
X192720000Y-57928000D03*
D12*
X184080000Y-62108000D03*
D13*
X184080000Y-57928000D03*
%TD*%
D14*
%TO.P,TP10,1,1*%
%TO.N,Net-(U3-SWD)*%
X192500000Y-99000000D03*
%TD*%
%TO.P,TP9,1,1*%
%TO.N,Net-(U3-SWCLK)*%
X190000000Y-99000000D03*
%TD*%
%TO.P,TP14,1,1*%
%TO.N,GND*%
X197500000Y-99000000D03*
%TD*%
%TO.P,TP13,1,1*%
%TO.N,+3V3*%
X195000000Y-99000000D03*
%TD*%
%TO.P,TP12,1,1*%
%TO.N,UART_RX*%
X179500000Y-96400000D03*
%TD*%
%TO.P,TP11,1,1*%
%TO.N,UART_TX*%
X177000000Y-96400000D03*
%TD*%
D15*
%TO.N,GND*%
X190296400Y-69985800D03*
X200450000Y-62320000D03*
X186400000Y-90600000D03*
X192650000Y-97000000D03*
X192300000Y-100200000D03*
X200292400Y-77851000D03*
X194400000Y-62900000D03*
X190200000Y-66800000D03*
X198120000Y-79502000D03*
X195961000Y-96012000D03*
X190000000Y-88600000D03*
X195400000Y-87000000D03*
X181525000Y-60225000D03*
X195850000Y-102750000D03*
X184200000Y-64900000D03*
X189900000Y-64800000D03*
X178800000Y-68000000D03*
X177000000Y-71000000D03*
X182000000Y-86950000D03*
X191494000Y-69985800D03*
X199000000Y-102900000D03*
X198593000Y-69931000D03*
X191700000Y-97000000D03*
X178250000Y-85450000D03*
X192900000Y-67400000D03*
X177700000Y-103000000D03*
X202800000Y-86700000D03*
X203300000Y-68900000D03*
X185500000Y-83800000D03*
X198400000Y-67700000D03*
X203400000Y-64700000D03*
X185950000Y-85100000D03*
X197600000Y-95600000D03*
X191780000Y-59070000D03*
X178800000Y-86700000D03*
X194710000Y-64730000D03*
X180000000Y-65000000D03*
X173700000Y-61200000D03*
X177900000Y-64800000D03*
X180915220Y-102653070D03*
X173200000Y-102600000D03*
X196900000Y-64800000D03*
X187700000Y-89450000D03*
X193400000Y-100100000D03*
X194848152Y-102798152D03*
X203700000Y-78300000D03*
X195980000Y-60450000D03*
X203100000Y-62200000D03*
X173550000Y-82100000D03*
X181300000Y-86400000D03*
X180000000Y-102700000D03*
X183700000Y-102490000D03*
X203500000Y-73200000D03*
X197500000Y-97800000D03*
X175630000Y-82130000D03*
X191600000Y-100000000D03*
X199700000Y-101250000D03*
X177150000Y-95050000D03*
X183000000Y-87000000D03*
X174900000Y-98700000D03*
X202300000Y-96900000D03*
X190100000Y-59050000D03*
X203700000Y-102400000D03*
X175130000Y-83490000D03*
X199700000Y-87100000D03*
X173796000Y-62227000D03*
X196469000Y-81661000D03*
X179600000Y-98200000D03*
X177100000Y-82200000D03*
X185570000Y-59060000D03*
X174700000Y-66800000D03*
X197358000Y-69977000D03*
X178181000Y-76454000D03*
X179000000Y-98700000D03*
X181100000Y-63200000D03*
X203300000Y-100400000D03*
X188849000Y-74422000D03*
X173700000Y-98700000D03*
X178350000Y-84450000D03*
X178589000Y-70612000D03*
X173355000Y-78867000D03*
X178716000Y-74295000D03*
X199000000Y-90900000D03*
X178800000Y-87750000D03*
X202600000Y-67100000D03*
X180300000Y-60275000D03*
X184700000Y-87025000D03*
X173290000Y-76454000D03*
X173990000Y-71882000D03*
X192700000Y-64700000D03*
X179070000Y-78105000D03*
X202184000Y-82550000D03*
X179700000Y-81600000D03*
X181839638Y-98458238D03*
X188040000Y-59060000D03*
X173400000Y-63800000D03*
X182700000Y-67900000D03*
X194564000Y-83439000D03*
X175850000Y-98550000D03*
%TO.N,+1V1*%
X184743148Y-89447720D03*
X182517938Y-89382062D03*
X183208600Y-98600000D03*
X183500000Y-96200000D03*
%TO.N,+3V3*%
X175500000Y-89230000D03*
X193200000Y-86600000D03*
X190850000Y-87900000D03*
X182150000Y-86050000D03*
D16*
X195950000Y-99900000D03*
D15*
X187043750Y-86943750D03*
X178740000Y-91300000D03*
D16*
%TO.N,Net-(D2-K)*%
X188722000Y-84201000D03*
X202200000Y-72400000D03*
%TO.N,VBUS*%
X194750000Y-65700000D03*
D15*
X186400000Y-65525000D03*
D16*
X201125000Y-67975000D03*
D15*
X190850000Y-65625000D03*
%TO.N,SD_MISO*%
X194050000Y-95650000D03*
X190400000Y-96122000D03*
%TO.N,OLED_SDA*%
X185293000Y-81788000D03*
X191600000Y-92180000D03*
X187200000Y-83042400D03*
X187841701Y-91777331D03*
%TO.N,OLED_SCL*%
X192400000Y-94050000D03*
X187742304Y-93757696D03*
%TO.N,GC_CLK*%
X184700000Y-103400000D03*
X180848000Y-103302000D03*
%TO.N,GC_ACK*%
X193110000Y-103370000D03*
X185860000Y-102330000D03*
%TO.N,D-*%
X188341000Y-70358000D03*
X183940000Y-83300000D03*
%TO.N,D+*%
X187452000Y-70358000D03*
X183260000Y-83300000D03*
%TO.N,UART_TX*%
X178544799Y-95706768D03*
%TO.N,UART_RX*%
X178544800Y-96500000D03*
D16*
%TO.N,Net-(U3-GPIO19)*%
X188700000Y-99220000D03*
D15*
X187530000Y-99220000D03*
%TO.N,Net-(U3-GPIO15)*%
X193610000Y-102640000D03*
X181178993Y-98429400D03*
%TO.N,SW1*%
X199800000Y-67818000D03*
X198374000Y-83058000D03*
X193604897Y-94955442D03*
X187494347Y-95438790D03*
%TO.N,SW2*%
X199250000Y-68199000D03*
X193150000Y-94450000D03*
X197000000Y-82042000D03*
X187347740Y-94774780D03*
%TO.N,GC_3.3V*%
X185460000Y-104010000D03*
D16*
X190279000Y-103400000D03*
X179925000Y-103650000D03*
D15*
%TO.N,Net-(U3-SWCLK)*%
X184634800Y-99700000D03*
%TO.N,Net-(U3-SWD)*%
X184696381Y-98953619D03*
%TD*%
D17*
%TO.N,+1V1*%
X183208600Y-98600000D02*
X183500000Y-98308600D01*
X183500000Y-98308600D02*
X183500000Y-96200000D01*
X184677490Y-89382062D02*
X182517938Y-89382062D01*
X184743148Y-89447720D02*
X184677490Y-89382062D01*
%TO.N,+3V3*%
X196000000Y-99850000D02*
X196000000Y-99200000D01*
X178740000Y-91040000D02*
X178740000Y-91300000D01*
X175500000Y-89230000D02*
X176930000Y-89230000D01*
X195950000Y-99900000D02*
X196000000Y-99850000D01*
X176930000Y-89230000D02*
X178740000Y-91040000D01*
D18*
X182150000Y-86050000D02*
X186150000Y-86050000D01*
D17*
X195800000Y-99000000D02*
X195000000Y-99000000D01*
X196000000Y-99200000D02*
X195800000Y-99000000D01*
D19*
X191900000Y-87900000D02*
X193200000Y-86600000D01*
X190850000Y-87900000D02*
X191900000Y-87900000D01*
D18*
X186150000Y-86050000D02*
X187043750Y-86943750D01*
D20*
%TO.N,Net-(D2-K)*%
X201422000Y-83058000D02*
X200279000Y-84201000D01*
X201422000Y-72898000D02*
X201422000Y-83058000D01*
X202200000Y-72400000D02*
X201920000Y-72400000D01*
X201920000Y-72400000D02*
X201422000Y-72898000D01*
X200279000Y-84201000D02*
X188722000Y-84201000D01*
%TO.N,VBUS*%
X186400000Y-65525000D02*
X186700000Y-65825000D01*
X201125000Y-67394000D02*
X201125000Y-67975000D01*
X199506000Y-65775000D02*
X201125000Y-67394000D01*
X194825000Y-65775000D02*
X199506000Y-65775000D01*
X190650000Y-65825000D02*
X190850000Y-65625000D01*
X194750000Y-65700000D02*
X194825000Y-65775000D01*
X186700000Y-65825000D02*
X190650000Y-65825000D01*
D21*
%TO.N,SD_MISO*%
X193600000Y-96150000D02*
X190428000Y-96150000D01*
X190428000Y-96150000D02*
X190400000Y-96122000D01*
X194050000Y-95700000D02*
X193600000Y-96150000D01*
%TO.N,OLED_SDA*%
X185293000Y-82788400D02*
X185547000Y-83042400D01*
X185293000Y-81788000D02*
X185293000Y-82788400D01*
X185547000Y-83042400D02*
X187200000Y-83042400D01*
X188244370Y-92180000D02*
X187841701Y-91777331D01*
X191600000Y-92180000D02*
X188244370Y-92180000D01*
%TO.N,OLED_SCL*%
X188034608Y-94050000D02*
X187742304Y-93757696D01*
X192400000Y-94050000D02*
X188034608Y-94050000D01*
D22*
%TO.N,GC_CLK*%
X184700000Y-103400000D02*
X180946000Y-103400000D01*
X180946000Y-103400000D02*
X180848000Y-103302000D01*
%TO.N,GC_ACK*%
X186230000Y-102700000D02*
X192440000Y-102700000D01*
X185860000Y-102330000D02*
X186230000Y-102700000D01*
X192440000Y-102700000D02*
X193110000Y-103370000D01*
D21*
%TO.N,D-*%
X183780000Y-83140000D02*
X183940000Y-83300000D01*
X188080000Y-70619000D02*
X188080000Y-75474560D01*
X183780000Y-79774560D02*
X183780000Y-83140000D01*
X188341000Y-70358000D02*
X188080000Y-70619000D01*
X188080000Y-75474560D02*
X183780000Y-79774560D01*
%TO.N,D+*%
X187452000Y-70358000D02*
X187720000Y-70626000D01*
X183420000Y-79625440D02*
X183420000Y-83140000D01*
X187720000Y-70626000D02*
X187720000Y-75325440D01*
X187720000Y-75325440D02*
X183420000Y-79625440D01*
X183420000Y-83140000D02*
X183260000Y-83300000D01*
D23*
%TO.N,UART_TX*%
X178544799Y-95706768D02*
X177851567Y-96400000D01*
X177851567Y-96400000D02*
X177000000Y-96400000D01*
%TO.N,UART_RX*%
X179400000Y-96500000D02*
X179500000Y-96400000D01*
X178544800Y-96500000D02*
X179400000Y-96500000D01*
D21*
%TO.N,Net-(U3-GPIO19)*%
X187530000Y-99220000D02*
X188700000Y-99220000D01*
X188700000Y-99220000D02*
X188790000Y-99220000D01*
D22*
%TO.N,Net-(U3-GPIO15)*%
X181801087Y-99148913D02*
X183342174Y-100690000D01*
X183342174Y-100690000D02*
X185360000Y-100690000D01*
X181178993Y-98429400D02*
X181178993Y-98526818D01*
X185360000Y-100690000D02*
X186760000Y-102090000D01*
X181178993Y-98526818D02*
X181801087Y-99148913D01*
X186760000Y-102090000D02*
X193060000Y-102090000D01*
X193060000Y-102090000D02*
X193610000Y-102640000D01*
D21*
%TO.N,SW1*%
X187494347Y-95438790D02*
X187508137Y-95425000D01*
X191550000Y-95425000D02*
X193135339Y-95425000D01*
X193604897Y-94955442D02*
X193655442Y-94955442D01*
X187508137Y-95425000D02*
X191550000Y-95425000D01*
X198374000Y-83058000D02*
X199517000Y-83058000D01*
X193135339Y-95425000D02*
X193604897Y-94955442D01*
X199517000Y-83058000D02*
X199800000Y-82775000D01*
X199800000Y-82775000D02*
X199800000Y-67818000D01*
%TO.N,SW2*%
X187372960Y-94800000D02*
X192800000Y-94800000D01*
X199009000Y-82042000D02*
X199250000Y-81801000D01*
X187347740Y-94774780D02*
X187372960Y-94800000D01*
X199250000Y-81801000D02*
X199250000Y-68199000D01*
X197000000Y-82042000D02*
X199009000Y-82042000D01*
X192800000Y-94800000D02*
X193150000Y-94450000D01*
D18*
%TO.N,GC_3.3V*%
X190269000Y-103410000D02*
X186060000Y-103410000D01*
X186060000Y-103410000D02*
X185460000Y-104010000D01*
D17*
X179925000Y-103650000D02*
X180285000Y-104010000D01*
D18*
X190279000Y-103400000D02*
X190269000Y-103410000D01*
D17*
X180285000Y-104010000D02*
X185460000Y-104010000D01*
D23*
%TO.N,Net-(U3-SWCLK)*%
X189600000Y-98600000D02*
X190000000Y-99000000D01*
X185734800Y-98600000D02*
X189600000Y-98600000D01*
X184634800Y-99700000D02*
X185734800Y-98600000D01*
%TO.N,Net-(U3-SWD)*%
X185450000Y-98200000D02*
X191700000Y-98200000D01*
X184696381Y-98953619D02*
X185450000Y-98200000D01*
X191700000Y-98200000D02*
X192500000Y-99000000D01*
%TD*%
%TA.AperFunction,Conductor*%
%TO.N,GND*%
G36*
X192809683Y-57101775D02*
G01*
X192831385Y-57104632D01*
X192883952Y-57111552D01*
X192921515Y-57121617D01*
X192981626Y-57146516D01*
X193015308Y-57165962D01*
X193066925Y-57205569D01*
X193094430Y-57233074D01*
X193134037Y-57284691D01*
X193153485Y-57318376D01*
X193178380Y-57378478D01*
X193188447Y-57416048D01*
X193198225Y-57490314D01*
X193199500Y-57509764D01*
X193199500Y-59619991D01*
X193214800Y-59656929D01*
X193243071Y-59685200D01*
X193280009Y-59700500D01*
X193319991Y-59700500D01*
X202973071Y-59700500D01*
X202994142Y-59700500D01*
X203005832Y-59700959D01*
X203207243Y-59716810D01*
X203230335Y-59720468D01*
X203421064Y-59766258D01*
X203443301Y-59773483D01*
X203624525Y-59848548D01*
X203645358Y-59859163D01*
X203812607Y-59961654D01*
X203831521Y-59975396D01*
X203980678Y-60102787D01*
X203997210Y-60119319D01*
X204060907Y-60193899D01*
X204124603Y-60268478D01*
X204138345Y-60287392D01*
X204240836Y-60454641D01*
X204251451Y-60475474D01*
X204326516Y-60656698D01*
X204333741Y-60678935D01*
X204379531Y-60869664D01*
X204383189Y-60892756D01*
X204399041Y-61094166D01*
X204399500Y-61105857D01*
X204399500Y-102194142D01*
X204399041Y-102205833D01*
X204383189Y-102407243D01*
X204379531Y-102430335D01*
X204333741Y-102621064D01*
X204326516Y-102643301D01*
X204251451Y-102824525D01*
X204240836Y-102845358D01*
X204138345Y-103012607D01*
X204124603Y-103031521D01*
X203997212Y-103180678D01*
X203980678Y-103197212D01*
X203831521Y-103324603D01*
X203812607Y-103338345D01*
X203645358Y-103440836D01*
X203624525Y-103451451D01*
X203443301Y-103526516D01*
X203421064Y-103533741D01*
X203230335Y-103579531D01*
X203207243Y-103583189D01*
X203020846Y-103597859D01*
X203005831Y-103599041D01*
X202994142Y-103599500D01*
X197515335Y-103599500D01*
X197515335Y-103598608D01*
X197495445Y-103597899D01*
X197495456Y-103599891D01*
X193807890Y-103619480D01*
X193806375Y-103619082D01*
X193804858Y-103619465D01*
X193769185Y-103609329D01*
X193733285Y-103599914D01*
X193732171Y-103598812D01*
X193730667Y-103598385D01*
X193704827Y-103571757D01*
X193678458Y-103545666D01*
X193678045Y-103544157D01*
X193676955Y-103543034D01*
X193675143Y-103533553D01*
X193658100Y-103471274D01*
X193658115Y-103468242D01*
X193658383Y-103450373D01*
X193660500Y-103442475D01*
X193660500Y-103309609D01*
X193660517Y-103308479D01*
X193670755Y-103272446D01*
X193680462Y-103236219D01*
X193681281Y-103235399D01*
X193681597Y-103234288D01*
X193708478Y-103208202D01*
X193735000Y-103181681D01*
X193736411Y-103181096D01*
X193736948Y-103180576D01*
X193738785Y-103180113D01*
X193770934Y-103166797D01*
X193822485Y-103152984D01*
X193948015Y-103080509D01*
X194050509Y-102978015D01*
X194103047Y-102887016D01*
X194122983Y-102852487D01*
X194122984Y-102852485D01*
X194160500Y-102712475D01*
X194160500Y-102567525D01*
X194122984Y-102427515D01*
X194122983Y-102427514D01*
X194122983Y-102427512D01*
X194050511Y-102301988D01*
X194050510Y-102301987D01*
X194050509Y-102301985D01*
X193948015Y-102199491D01*
X193948012Y-102199489D01*
X193948011Y-102199488D01*
X193822487Y-102127016D01*
X193682476Y-102089500D01*
X193672796Y-102088226D01*
X193673138Y-102085622D01*
X193668663Y-102084423D01*
X193649047Y-102084423D01*
X193632059Y-102074615D01*
X193613111Y-102069538D01*
X193582252Y-102045859D01*
X193479611Y-101943218D01*
X193396204Y-101859811D01*
X193380106Y-101843713D01*
X200049500Y-101843713D01*
X200049500Y-101859811D01*
X200049500Y-102056287D01*
X200082754Y-102266243D01*
X200148443Y-102468412D01*
X200243969Y-102655893D01*
X200244950Y-102657817D01*
X200244950Y-102657818D01*
X200307422Y-102743804D01*
X200369896Y-102829792D01*
X200520208Y-102980104D01*
X200692184Y-103105051D01*
X200881588Y-103201557D01*
X201083757Y-103267246D01*
X201293713Y-103300500D01*
X201293718Y-103300500D01*
X201506282Y-103300500D01*
X201506287Y-103300500D01*
X201716243Y-103267246D01*
X201918412Y-103201557D01*
X202107816Y-103105051D01*
X202279792Y-102980104D01*
X202430104Y-102829792D01*
X202555051Y-102657816D01*
X202651557Y-102468412D01*
X202717246Y-102266243D01*
X202750500Y-102056287D01*
X202750500Y-101843713D01*
X202717246Y-101633757D01*
X202651557Y-101431588D01*
X202555051Y-101242184D01*
X202430104Y-101070208D01*
X202279792Y-100919896D01*
X202107816Y-100794949D01*
X201918412Y-100698443D01*
X201716243Y-100632754D01*
X201506287Y-100599500D01*
X201293713Y-100599500D01*
X201118749Y-100627211D01*
X201083756Y-100632754D01*
X200881594Y-100698441D01*
X200881588Y-100698443D01*
X200881582Y-100698445D01*
X200881582Y-100698446D01*
X200692182Y-100794950D01*
X200692181Y-100794950D01*
X200520209Y-100919895D01*
X200520206Y-100919897D01*
X200369897Y-101070206D01*
X200369895Y-101070209D01*
X200244950Y-101242181D01*
X200244950Y-101242182D01*
X200148446Y-101431582D01*
X200148441Y-101431594D01*
X200082754Y-101633756D01*
X200077087Y-101669538D01*
X200049500Y-101843713D01*
X193380106Y-101843713D01*
X193305913Y-101769520D01*
X193305910Y-101769518D01*
X193305906Y-101769515D01*
X193214591Y-101716794D01*
X193214588Y-101716793D01*
X193187295Y-101709480D01*
X193112729Y-101689500D01*
X193112727Y-101689500D01*
X186987611Y-101689500D01*
X186913111Y-101669538D01*
X186882252Y-101645859D01*
X186246873Y-101010480D01*
X185605913Y-100369520D01*
X185605910Y-100369518D01*
X185605906Y-100369515D01*
X185514591Y-100316794D01*
X185514588Y-100316793D01*
X185487295Y-100309480D01*
X185412729Y-100289500D01*
X185412727Y-100289500D01*
X185183541Y-100289500D01*
X185109041Y-100269538D01*
X185054503Y-100215000D01*
X185034541Y-100140500D01*
X185054503Y-100066000D01*
X185069788Y-100046079D01*
X185069368Y-100045756D01*
X185075304Y-100038019D01*
X185075309Y-100038015D01*
X185147784Y-99912485D01*
X185185300Y-99772475D01*
X185185300Y-99743952D01*
X185205262Y-99669452D01*
X185228941Y-99638593D01*
X185847193Y-99020341D01*
X185913988Y-98981777D01*
X185952552Y-98976700D01*
X186832087Y-98976700D01*
X186906587Y-98996662D01*
X186961125Y-99051200D01*
X186981087Y-99125700D01*
X186979813Y-99145141D01*
X186979500Y-99147519D01*
X186979500Y-99292476D01*
X187017016Y-99432487D01*
X187089488Y-99558011D01*
X187089489Y-99558012D01*
X187089491Y-99558015D01*
X187191985Y-99660509D01*
X187191987Y-99660510D01*
X187191988Y-99660511D01*
X187317512Y-99732983D01*
X187317514Y-99732983D01*
X187317515Y-99732984D01*
X187457525Y-99770500D01*
X187602475Y-99770500D01*
X187742485Y-99732984D01*
X187868015Y-99660509D01*
X187874384Y-99654139D01*
X187891369Y-99644333D01*
X187905241Y-99630462D01*
X187924189Y-99625384D01*
X187941177Y-99615577D01*
X187979741Y-99610500D01*
X188179546Y-99610500D01*
X188254046Y-99630462D01*
X188284905Y-99654141D01*
X188331284Y-99700520D01*
X188468216Y-99779577D01*
X188620943Y-99820500D01*
X188779057Y-99820500D01*
X188931784Y-99779577D01*
X189068716Y-99700520D01*
X189180520Y-99588716D01*
X189184495Y-99581830D01*
X189239028Y-99527294D01*
X189313527Y-99507329D01*
X189388028Y-99527288D01*
X189418892Y-99550970D01*
X189489711Y-99621789D01*
X189620821Y-99709394D01*
X189766503Y-99769737D01*
X189921158Y-99800500D01*
X190078842Y-99800500D01*
X190233497Y-99769737D01*
X190379179Y-99709394D01*
X190510289Y-99621789D01*
X190621789Y-99510289D01*
X190709394Y-99379179D01*
X190769737Y-99233497D01*
X190800500Y-99078842D01*
X190800500Y-98921158D01*
X190778884Y-98812486D01*
X190768309Y-98759323D01*
X190770154Y-98758956D01*
X190767955Y-98691873D01*
X190804309Y-98623850D01*
X190869804Y-98583118D01*
X190913064Y-98576700D01*
X191482248Y-98576700D01*
X191501196Y-98581777D01*
X191520812Y-98581777D01*
X191537799Y-98591584D01*
X191556748Y-98596662D01*
X191587607Y-98620341D01*
X191674529Y-98707263D01*
X191713093Y-98774058D01*
X191715307Y-98841690D01*
X191699500Y-98921157D01*
X191699500Y-99078842D01*
X191730262Y-99233494D01*
X191730263Y-99233498D01*
X191790604Y-99379176D01*
X191790605Y-99379178D01*
X191790606Y-99379179D01*
X191878211Y-99510289D01*
X191989711Y-99621789D01*
X192120821Y-99709394D01*
X192266503Y-99769737D01*
X192421158Y-99800500D01*
X192578842Y-99800500D01*
X192733497Y-99769737D01*
X192879179Y-99709394D01*
X193010289Y-99621789D01*
X193121789Y-99510289D01*
X193209394Y-99379179D01*
X193269737Y-99233497D01*
X193300500Y-99078842D01*
X193300500Y-98921158D01*
X193300500Y-98921157D01*
X194199500Y-98921157D01*
X194199500Y-99078842D01*
X194230262Y-99233494D01*
X194230263Y-99233498D01*
X194290604Y-99379176D01*
X194290605Y-99379178D01*
X194290606Y-99379179D01*
X194378211Y-99510289D01*
X194489711Y-99621789D01*
X194620821Y-99709394D01*
X194766503Y-99769737D01*
X194921158Y-99800500D01*
X195078841Y-99800500D01*
X195078842Y-99800500D01*
X195171433Y-99782082D01*
X195248394Y-99787126D01*
X195312523Y-99829976D01*
X195346637Y-99899150D01*
X195349500Y-99928219D01*
X195349500Y-99979057D01*
X195390423Y-100131784D01*
X195469480Y-100268716D01*
X195581284Y-100380520D01*
X195718216Y-100459577D01*
X195870943Y-100500500D01*
X196029057Y-100500500D01*
X196181784Y-100459577D01*
X196318716Y-100380520D01*
X196430520Y-100268716D01*
X196509577Y-100131784D01*
X196550500Y-99979057D01*
X196550500Y-99820943D01*
X196509577Y-99668216D01*
X196505128Y-99660510D01*
X196470462Y-99600465D01*
X196450500Y-99525966D01*
X196450500Y-99140691D01*
X196450499Y-99140689D01*
X196443075Y-99112983D01*
X196419799Y-99026114D01*
X196419799Y-99026113D01*
X196360490Y-98923386D01*
X196076614Y-98639511D01*
X196076609Y-98639507D01*
X195973890Y-98580202D01*
X195973887Y-98580201D01*
X195960821Y-98576700D01*
X195960034Y-98576489D01*
X195960032Y-98576488D01*
X195949673Y-98573713D01*
X195859309Y-98549500D01*
X195732519Y-98549500D01*
X195723777Y-98548463D01*
X195695862Y-98537317D01*
X195666829Y-98529538D01*
X195658339Y-98522335D01*
X195652147Y-98519863D01*
X195645536Y-98511473D01*
X195626153Y-98495028D01*
X195621790Y-98489712D01*
X195510292Y-98378214D01*
X195510289Y-98378211D01*
X195379179Y-98290606D01*
X195379178Y-98290605D01*
X195379176Y-98290604D01*
X195233498Y-98230263D01*
X195233494Y-98230262D01*
X195078842Y-98199500D01*
X194921158Y-98199500D01*
X194766505Y-98230262D01*
X194766501Y-98230263D01*
X194620823Y-98290604D01*
X194489707Y-98378214D01*
X194378214Y-98489707D01*
X194378211Y-98489710D01*
X194378211Y-98489711D01*
X194351599Y-98529538D01*
X194290604Y-98620823D01*
X194230263Y-98766501D01*
X194230262Y-98766505D01*
X194199500Y-98921157D01*
X193300500Y-98921157D01*
X193269737Y-98766503D01*
X193210649Y-98623850D01*
X193209395Y-98620823D01*
X193185602Y-98585214D01*
X193121789Y-98489711D01*
X193010289Y-98378211D01*
X192879179Y-98290606D01*
X192879178Y-98290605D01*
X192879176Y-98290604D01*
X192733498Y-98230263D01*
X192733494Y-98230262D01*
X192578842Y-98199500D01*
X192421158Y-98199500D01*
X192341690Y-98215307D01*
X192307908Y-98213093D01*
X192274058Y-98213093D01*
X192269723Y-98210590D01*
X192264727Y-98210263D01*
X192207263Y-98174529D01*
X192009930Y-97977196D01*
X192009925Y-97977190D01*
X192001435Y-97968700D01*
X191931300Y-97898565D01*
X191931297Y-97898563D01*
X191931296Y-97898562D01*
X191845403Y-97848971D01*
X191749593Y-97823299D01*
X191650407Y-97823299D01*
X191641278Y-97823299D01*
X191641262Y-97823300D01*
X185400403Y-97823300D01*
X185304598Y-97848971D01*
X185218703Y-97898562D01*
X185218700Y-97898565D01*
X185148565Y-97968700D01*
X185148563Y-97968702D01*
X184942737Y-98174529D01*
X184757788Y-98359478D01*
X184690993Y-98398042D01*
X184652429Y-98403119D01*
X184623906Y-98403119D01*
X184483893Y-98440635D01*
X184358369Y-98513107D01*
X184255869Y-98615607D01*
X184183397Y-98741131D01*
X184145881Y-98881142D01*
X184145881Y-99026095D01*
X184183398Y-99166107D01*
X184202830Y-99199765D01*
X184222791Y-99274265D01*
X184202828Y-99348765D01*
X184196172Y-99358726D01*
X184121816Y-99487512D01*
X184084300Y-99627523D01*
X184084300Y-99772476D01*
X184121816Y-99912487D01*
X184194288Y-100038011D01*
X184200232Y-100045756D01*
X184198371Y-100047184D01*
X184229982Y-100101936D01*
X184229982Y-100179064D01*
X184191418Y-100245859D01*
X184124623Y-100284423D01*
X184086059Y-100289500D01*
X183569785Y-100289500D01*
X183495285Y-100269538D01*
X183464426Y-100245859D01*
X182047000Y-98828433D01*
X181841686Y-98623118D01*
X181773134Y-98554566D01*
X181757521Y-98527523D01*
X182658100Y-98527523D01*
X182658100Y-98672476D01*
X182695616Y-98812487D01*
X182768088Y-98938011D01*
X182768089Y-98938012D01*
X182768091Y-98938015D01*
X182870585Y-99040509D01*
X182870587Y-99040510D01*
X182870588Y-99040511D01*
X182996112Y-99112983D01*
X182996114Y-99112983D01*
X182996115Y-99112984D01*
X183136125Y-99150500D01*
X183281075Y-99150500D01*
X183421085Y-99112984D01*
X183546615Y-99040509D01*
X183649109Y-98938015D01*
X183721584Y-98812485D01*
X183743595Y-98730336D01*
X183782153Y-98663549D01*
X183860490Y-98585214D01*
X183919799Y-98482487D01*
X183933514Y-98431300D01*
X183950500Y-98367909D01*
X183950500Y-96704006D01*
X199277500Y-96704006D01*
X199277500Y-96841993D01*
X199304419Y-96977325D01*
X199304420Y-96977329D01*
X199357224Y-97104809D01*
X199357227Y-97104815D01*
X199433883Y-97219538D01*
X199433886Y-97219542D01*
X199531458Y-97317114D01*
X199531461Y-97317116D01*
X199646184Y-97393772D01*
X199646186Y-97393773D01*
X199646189Y-97393775D01*
X199773672Y-97446580D01*
X199909007Y-97473500D01*
X200046993Y-97473500D01*
X200182328Y-97446580D01*
X200309811Y-97393775D01*
X200424542Y-97317114D01*
X200522114Y-97219542D01*
X200598775Y-97104811D01*
X200651580Y-96977328D01*
X200678500Y-96841993D01*
X200678500Y-96704007D01*
X200651580Y-96568672D01*
X200598775Y-96441189D01*
X200550415Y-96368814D01*
X200522116Y-96326461D01*
X200522114Y-96326458D01*
X200424542Y-96228886D01*
X200424538Y-96228883D01*
X200309815Y-96152227D01*
X200309809Y-96152224D01*
X200182329Y-96099420D01*
X200182325Y-96099419D01*
X200046993Y-96072500D01*
X199909007Y-96072500D01*
X199773674Y-96099419D01*
X199773670Y-96099420D01*
X199646190Y-96152224D01*
X199646184Y-96152227D01*
X199531461Y-96228883D01*
X199531454Y-96228889D01*
X199433889Y-96326454D01*
X199433883Y-96326461D01*
X199357227Y-96441184D01*
X199357224Y-96441190D01*
X199304420Y-96568670D01*
X199304419Y-96568674D01*
X199277500Y-96704006D01*
X183950500Y-96704006D01*
X183950500Y-96560634D01*
X183970462Y-96486135D01*
X183970463Y-96486134D01*
X184012982Y-96412488D01*
X184012981Y-96412488D01*
X184012984Y-96412485D01*
X184050500Y-96272475D01*
X184050500Y-96127525D01*
X184012984Y-95987515D01*
X184012983Y-95987514D01*
X184012983Y-95987512D01*
X183940511Y-95861988D01*
X183940510Y-95861987D01*
X183940509Y-95861985D01*
X183838015Y-95759491D01*
X183838012Y-95759489D01*
X183838011Y-95759488D01*
X183712487Y-95687016D01*
X183572475Y-95649500D01*
X183427525Y-95649500D01*
X183287512Y-95687016D01*
X183161988Y-95759488D01*
X183059488Y-95861988D01*
X182987016Y-95987512D01*
X182949500Y-96127523D01*
X182949500Y-96272476D01*
X182987017Y-96412488D01*
X183029537Y-96486134D01*
X183049500Y-96560634D01*
X183049500Y-97970168D01*
X183029538Y-98044668D01*
X182975001Y-98099205D01*
X182870591Y-98159486D01*
X182870587Y-98159489D01*
X182768088Y-98261988D01*
X182695616Y-98387512D01*
X182658100Y-98527523D01*
X181757521Y-98527523D01*
X181734570Y-98487771D01*
X181729493Y-98449207D01*
X181729493Y-98356925D01*
X181729492Y-98356923D01*
X181711722Y-98290606D01*
X181691977Y-98216915D01*
X181691976Y-98216914D01*
X181691976Y-98216912D01*
X181619504Y-98091388D01*
X181619503Y-98091387D01*
X181619502Y-98091385D01*
X181517008Y-97988891D01*
X181517005Y-97988889D01*
X181517004Y-97988888D01*
X181391480Y-97916416D01*
X181251468Y-97878900D01*
X181106518Y-97878900D01*
X180966505Y-97916416D01*
X180840981Y-97988888D01*
X180738481Y-98091388D01*
X180666009Y-98216912D01*
X180628493Y-98356923D01*
X180628493Y-98501876D01*
X180666009Y-98641887D01*
X180738481Y-98767411D01*
X180738482Y-98767412D01*
X180738484Y-98767415D01*
X180840978Y-98869909D01*
X180840980Y-98869910D01*
X180840981Y-98869911D01*
X180966506Y-98942383D01*
X180966508Y-98942384D01*
X181012171Y-98954619D01*
X181078965Y-98993183D01*
X181480605Y-99394823D01*
X181480607Y-99394826D01*
X183096261Y-101010480D01*
X183096263Y-101010481D01*
X183096267Y-101010484D01*
X183187582Y-101063205D01*
X183187583Y-101063205D01*
X183187586Y-101063207D01*
X183289447Y-101090500D01*
X185132389Y-101090500D01*
X185206889Y-101110462D01*
X185237748Y-101134141D01*
X185683351Y-101579744D01*
X185721915Y-101646539D01*
X185721915Y-101723667D01*
X185683351Y-101790462D01*
X185652493Y-101814140D01*
X185521991Y-101889486D01*
X185521987Y-101889489D01*
X185419488Y-101991988D01*
X185347016Y-102117512D01*
X185309500Y-102257523D01*
X185309500Y-102402476D01*
X185347016Y-102542487D01*
X185419488Y-102668011D01*
X185419489Y-102668012D01*
X185419491Y-102668015D01*
X185521985Y-102770509D01*
X185521987Y-102770510D01*
X185521991Y-102770513D01*
X185606763Y-102819457D01*
X185620632Y-102833326D01*
X185637621Y-102843135D01*
X185647430Y-102860124D01*
X185661300Y-102873995D01*
X185666376Y-102892941D01*
X185676185Y-102909930D01*
X185676185Y-102929547D01*
X185681262Y-102948495D01*
X185676185Y-102967441D01*
X185676185Y-102987058D01*
X185666376Y-103004047D01*
X185661299Y-103022995D01*
X185637621Y-103053853D01*
X185455889Y-103235585D01*
X185389094Y-103274149D01*
X185311966Y-103274149D01*
X185245171Y-103235585D01*
X185218471Y-103195622D01*
X185217867Y-103195972D01*
X185140511Y-103061988D01*
X185140510Y-103061987D01*
X185140509Y-103061985D01*
X185038015Y-102959491D01*
X185038012Y-102959489D01*
X185038011Y-102959488D01*
X184912487Y-102887016D01*
X184772475Y-102849500D01*
X184627525Y-102849500D01*
X184487512Y-102887016D01*
X184361988Y-102959488D01*
X184354244Y-102965432D01*
X184352645Y-102963348D01*
X184298823Y-102994423D01*
X184260259Y-102999500D01*
X181385742Y-102999500D01*
X181311242Y-102979538D01*
X181280384Y-102955859D01*
X181186017Y-102861493D01*
X181186011Y-102861488D01*
X181060487Y-102789016D01*
X180920475Y-102751500D01*
X180775525Y-102751500D01*
X180635512Y-102789016D01*
X180509988Y-102861488D01*
X180407488Y-102963988D01*
X180364563Y-103038336D01*
X180310024Y-103092873D01*
X180235524Y-103112834D01*
X180165811Y-103094154D01*
X180165809Y-103094161D01*
X180165759Y-103094140D01*
X180161029Y-103092873D01*
X180156788Y-103090424D01*
X180004057Y-103049500D01*
X179845943Y-103049500D01*
X179693216Y-103090423D01*
X179693214Y-103090423D01*
X179693214Y-103090424D01*
X179556283Y-103169480D01*
X179444480Y-103281283D01*
X179365423Y-103418214D01*
X179346439Y-103489065D01*
X179307874Y-103555860D01*
X179241079Y-103594423D01*
X179202516Y-103599500D01*
X173805858Y-103599500D01*
X173794168Y-103599041D01*
X173777603Y-103597737D01*
X173592756Y-103583189D01*
X173569664Y-103579531D01*
X173378935Y-103533741D01*
X173356698Y-103526516D01*
X173175474Y-103451451D01*
X173154641Y-103440836D01*
X172987392Y-103338345D01*
X172968478Y-103324603D01*
X172824410Y-103201558D01*
X172819319Y-103197210D01*
X172802787Y-103180678D01*
X172802304Y-103180113D01*
X172690751Y-103049500D01*
X172675396Y-103031521D01*
X172661654Y-103012607D01*
X172656408Y-103004047D01*
X172576712Y-102873995D01*
X172559163Y-102845358D01*
X172548548Y-102824525D01*
X172473483Y-102643301D01*
X172466258Y-102621064D01*
X172429611Y-102468417D01*
X172420467Y-102430333D01*
X172416810Y-102407242D01*
X172408526Y-102301988D01*
X172400959Y-102205832D01*
X172400500Y-102194142D01*
X172400500Y-101843713D01*
X174049500Y-101843713D01*
X174049500Y-101859811D01*
X174049500Y-102056287D01*
X174082754Y-102266243D01*
X174148443Y-102468412D01*
X174243969Y-102655893D01*
X174244950Y-102657817D01*
X174244950Y-102657818D01*
X174307422Y-102743804D01*
X174369896Y-102829792D01*
X174520208Y-102980104D01*
X174692184Y-103105051D01*
X174881588Y-103201557D01*
X175083757Y-103267246D01*
X175293713Y-103300500D01*
X175293718Y-103300500D01*
X175506282Y-103300500D01*
X175506287Y-103300500D01*
X175716243Y-103267246D01*
X175918412Y-103201557D01*
X176107816Y-103105051D01*
X176279792Y-102980104D01*
X176430104Y-102829792D01*
X176555051Y-102657816D01*
X176651557Y-102468412D01*
X176717246Y-102266243D01*
X176750500Y-102056287D01*
X176750500Y-101843713D01*
X176717246Y-101633757D01*
X176651557Y-101431588D01*
X176555051Y-101242184D01*
X176430104Y-101070208D01*
X176279792Y-100919896D01*
X176107816Y-100794949D01*
X175918412Y-100698443D01*
X175716243Y-100632754D01*
X175506287Y-100599500D01*
X175293713Y-100599500D01*
X175118749Y-100627211D01*
X175083756Y-100632754D01*
X174881594Y-100698441D01*
X174881588Y-100698443D01*
X174881582Y-100698445D01*
X174881582Y-100698446D01*
X174692182Y-100794950D01*
X174692181Y-100794950D01*
X174520209Y-100919895D01*
X174520206Y-100919897D01*
X174369897Y-101070206D01*
X174369895Y-101070209D01*
X174244950Y-101242181D01*
X174244950Y-101242182D01*
X174148446Y-101431582D01*
X174148441Y-101431594D01*
X174082754Y-101633756D01*
X174077087Y-101669538D01*
X174049500Y-101843713D01*
X172400500Y-101843713D01*
X172400500Y-96321157D01*
X176199500Y-96321157D01*
X176199500Y-96478842D01*
X176230262Y-96633494D01*
X176230263Y-96633498D01*
X176290604Y-96779176D01*
X176290605Y-96779178D01*
X176290606Y-96779179D01*
X176378211Y-96910289D01*
X176489711Y-97021789D01*
X176620821Y-97109394D01*
X176766503Y-97169737D01*
X176921158Y-97200500D01*
X177078842Y-97200500D01*
X177233497Y-97169737D01*
X177379179Y-97109394D01*
X177510289Y-97021789D01*
X177621789Y-96910289D01*
X177666804Y-96842918D01*
X177692253Y-96820600D01*
X177716192Y-96796662D01*
X177721027Y-96795366D01*
X177724791Y-96792066D01*
X177790692Y-96776700D01*
X177792829Y-96776700D01*
X177792845Y-96776701D01*
X177801974Y-96776701D01*
X177901160Y-96776701D01*
X177901165Y-96776700D01*
X177935981Y-96767371D01*
X178013109Y-96767370D01*
X178079904Y-96805933D01*
X178103583Y-96836791D01*
X178104284Y-96838005D01*
X178104289Y-96838012D01*
X178104291Y-96838015D01*
X178206785Y-96940509D01*
X178206787Y-96940510D01*
X178206788Y-96940511D01*
X178332312Y-97012983D01*
X178332314Y-97012983D01*
X178332315Y-97012984D01*
X178472325Y-97050500D01*
X178617275Y-97050500D01*
X178757285Y-97012984D01*
X178757287Y-97012983D01*
X178800041Y-96988299D01*
X178874541Y-96968337D01*
X178949041Y-96988299D01*
X178979900Y-97011978D01*
X178989711Y-97021789D01*
X179120821Y-97109394D01*
X179266503Y-97169737D01*
X179421158Y-97200500D01*
X179578842Y-97200500D01*
X179733497Y-97169737D01*
X179879179Y-97109394D01*
X180010289Y-97021789D01*
X180121789Y-96910289D01*
X180209394Y-96779179D01*
X180269737Y-96633497D01*
X180300500Y-96478842D01*
X180300500Y-96321158D01*
X180269737Y-96166503D01*
X180238260Y-96090511D01*
X180209395Y-96020823D01*
X180204834Y-96013997D01*
X180121789Y-95889711D01*
X180010289Y-95778211D01*
X179879179Y-95690606D01*
X179879178Y-95690605D01*
X179879176Y-95690604D01*
X179733498Y-95630263D01*
X179733494Y-95630262D01*
X179578842Y-95599500D01*
X179421158Y-95599500D01*
X179266505Y-95630262D01*
X179259502Y-95632387D01*
X179258996Y-95630720D01*
X179191905Y-95639541D01*
X179120653Y-95610013D01*
X179073711Y-95548815D01*
X179067456Y-95530384D01*
X179057783Y-95494283D01*
X178985308Y-95368753D01*
X178882814Y-95266259D01*
X178882811Y-95266257D01*
X178882810Y-95266256D01*
X178757286Y-95193784D01*
X178617274Y-95156268D01*
X178472324Y-95156268D01*
X178332311Y-95193784D01*
X178206787Y-95266256D01*
X178104287Y-95368756D01*
X178031815Y-95494280D01*
X177994299Y-95634291D01*
X177994299Y-95662815D01*
X177989222Y-95681762D01*
X177989222Y-95701379D01*
X177979414Y-95718366D01*
X177974337Y-95737315D01*
X177950658Y-95768174D01*
X177830814Y-95888018D01*
X177764019Y-95926582D01*
X177686891Y-95926582D01*
X177620096Y-95888018D01*
X177510292Y-95778214D01*
X177510289Y-95778211D01*
X177379179Y-95690606D01*
X177379178Y-95690605D01*
X177379176Y-95690604D01*
X177233498Y-95630263D01*
X177233494Y-95630262D01*
X177078842Y-95599500D01*
X176921158Y-95599500D01*
X176766505Y-95630262D01*
X176766501Y-95630263D01*
X176620823Y-95690604D01*
X176573124Y-95722476D01*
X176491816Y-95776805D01*
X176489707Y-95778214D01*
X176378214Y-95889707D01*
X176378211Y-95889710D01*
X176378211Y-95889711D01*
X176353575Y-95926582D01*
X176290604Y-96020823D01*
X176230263Y-96166501D01*
X176230262Y-96166505D01*
X176199500Y-96321157D01*
X172400500Y-96321157D01*
X172400500Y-94702303D01*
X186797240Y-94702303D01*
X186797240Y-94847256D01*
X186834756Y-94987267D01*
X186907228Y-95112791D01*
X186907229Y-95112792D01*
X186907231Y-95112795D01*
X186928856Y-95134420D01*
X186967419Y-95201213D01*
X186967419Y-95278341D01*
X186943847Y-95366311D01*
X186943847Y-95511266D01*
X186981363Y-95651277D01*
X187053835Y-95776801D01*
X187053836Y-95776802D01*
X187053838Y-95776805D01*
X187156332Y-95879299D01*
X187156334Y-95879300D01*
X187156335Y-95879301D01*
X187281859Y-95951773D01*
X187281861Y-95951773D01*
X187281862Y-95951774D01*
X187421872Y-95989290D01*
X187566822Y-95989290D01*
X187706832Y-95951774D01*
X187832362Y-95879299D01*
X187852521Y-95859139D01*
X187919314Y-95820577D01*
X187957878Y-95815500D01*
X189718026Y-95815500D01*
X189792526Y-95835462D01*
X189847064Y-95890000D01*
X189867026Y-95964500D01*
X189861949Y-96003065D01*
X189849500Y-96049523D01*
X189849500Y-96194476D01*
X189887016Y-96334487D01*
X189959488Y-96460011D01*
X189959489Y-96460012D01*
X189959491Y-96460015D01*
X190061985Y-96562509D01*
X190061987Y-96562510D01*
X190061988Y-96562511D01*
X190187512Y-96634983D01*
X190187514Y-96634983D01*
X190187515Y-96634984D01*
X190327525Y-96672500D01*
X190472475Y-96672500D01*
X190612485Y-96634984D01*
X190615066Y-96633494D01*
X190729113Y-96567649D01*
X190741560Y-96560463D01*
X190816060Y-96540500D01*
X193651410Y-96540500D01*
X193750728Y-96513888D01*
X193839773Y-96462478D01*
X193912478Y-96389773D01*
X193912478Y-96389772D01*
X194065934Y-96236315D01*
X194083325Y-96226275D01*
X194132725Y-96197753D01*
X194262485Y-96162984D01*
X194388015Y-96090509D01*
X194490509Y-95988015D01*
X194547267Y-95889707D01*
X194562983Y-95862487D01*
X194563880Y-95859141D01*
X194600500Y-95722475D01*
X194600500Y-95577525D01*
X194562984Y-95437515D01*
X194562983Y-95437514D01*
X194562983Y-95437512D01*
X194490511Y-95311988D01*
X194490510Y-95311987D01*
X194490509Y-95311985D01*
X194388015Y-95209491D01*
X194388012Y-95209489D01*
X194388011Y-95209488D01*
X194262484Y-95137015D01*
X194253466Y-95133280D01*
X194254303Y-95131257D01*
X194199034Y-95099345D01*
X194160473Y-95032548D01*
X194155397Y-94993990D01*
X194155397Y-94882967D01*
X194155396Y-94882965D01*
X194145827Y-94847255D01*
X194117881Y-94742957D01*
X194117880Y-94742956D01*
X194117880Y-94742954D01*
X194045408Y-94617430D01*
X194045407Y-94617429D01*
X194045406Y-94617427D01*
X193942912Y-94514933D01*
X193942909Y-94514931D01*
X193942908Y-94514930D01*
X193817381Y-94442457D01*
X193793295Y-94436003D01*
X193726500Y-94397438D01*
X193687938Y-94330645D01*
X193669490Y-94261796D01*
X193662984Y-94237515D01*
X193590509Y-94111985D01*
X193488015Y-94009491D01*
X193488012Y-94009489D01*
X193488011Y-94009488D01*
X193362487Y-93937016D01*
X193222475Y-93899500D01*
X193077525Y-93899500D01*
X193077511Y-93899501D01*
X193076443Y-93899788D01*
X193075337Y-93899787D01*
X193067839Y-93900775D01*
X193067708Y-93899787D01*
X192999315Y-93899782D01*
X192932524Y-93861212D01*
X192908854Y-93830362D01*
X192908744Y-93830172D01*
X192840509Y-93711985D01*
X192738015Y-93609491D01*
X192738012Y-93609489D01*
X192738011Y-93609488D01*
X192612487Y-93537016D01*
X192472475Y-93499500D01*
X192327525Y-93499500D01*
X192187512Y-93537016D01*
X192061988Y-93609488D01*
X192061987Y-93609489D01*
X192061985Y-93609490D01*
X192061985Y-93609491D01*
X192055615Y-93615860D01*
X191988823Y-93654423D01*
X191950259Y-93659500D01*
X188400243Y-93659500D01*
X188325743Y-93639538D01*
X188271205Y-93585000D01*
X188256321Y-93549068D01*
X188255288Y-93545211D01*
X188182813Y-93419681D01*
X188080319Y-93317187D01*
X188080316Y-93317185D01*
X188080315Y-93317184D01*
X187954791Y-93244712D01*
X187814779Y-93207196D01*
X187669829Y-93207196D01*
X187529816Y-93244712D01*
X187404292Y-93317184D01*
X187301792Y-93419684D01*
X187229320Y-93545208D01*
X187191804Y-93685219D01*
X187191804Y-93830172D01*
X187205536Y-93881420D01*
X187220433Y-93937016D01*
X187229321Y-93970183D01*
X187265434Y-94032733D01*
X187285396Y-94107233D01*
X187265434Y-94181733D01*
X187210896Y-94236271D01*
X187174963Y-94251155D01*
X187135254Y-94261795D01*
X187009728Y-94334268D01*
X186907228Y-94436768D01*
X186834756Y-94562292D01*
X186797240Y-94702303D01*
X172400500Y-94702303D01*
X172400500Y-89157523D01*
X174949500Y-89157523D01*
X174949500Y-89302476D01*
X174987016Y-89442487D01*
X175059488Y-89568011D01*
X175059489Y-89568012D01*
X175059491Y-89568015D01*
X175161985Y-89670509D01*
X175161987Y-89670510D01*
X175161988Y-89670511D01*
X175287512Y-89742983D01*
X175287514Y-89742983D01*
X175287515Y-89742984D01*
X175427525Y-89780500D01*
X175572475Y-89780500D01*
X175712485Y-89742984D01*
X175752168Y-89720073D01*
X175786134Y-89700463D01*
X175860634Y-89680500D01*
X176681679Y-89680500D01*
X176756179Y-89700462D01*
X176787038Y-89724141D01*
X178149998Y-91087101D01*
X178188562Y-91153896D01*
X178188563Y-91217549D01*
X178190775Y-91217841D01*
X178189500Y-91227526D01*
X178189500Y-91372476D01*
X178227016Y-91512487D01*
X178299488Y-91638011D01*
X178299489Y-91638012D01*
X178299491Y-91638015D01*
X178401985Y-91740509D01*
X178401987Y-91740510D01*
X178401988Y-91740511D01*
X178527512Y-91812983D01*
X178527514Y-91812983D01*
X178527515Y-91812984D01*
X178667525Y-91850500D01*
X178812475Y-91850500D01*
X178952485Y-91812984D01*
X179078015Y-91740509D01*
X179113670Y-91704854D01*
X187291201Y-91704854D01*
X187291201Y-91849807D01*
X187328717Y-91989818D01*
X187401189Y-92115342D01*
X187401190Y-92115343D01*
X187401192Y-92115346D01*
X187503686Y-92217840D01*
X187503688Y-92217841D01*
X187503689Y-92217842D01*
X187629213Y-92290314D01*
X187629215Y-92290314D01*
X187629216Y-92290315D01*
X187769226Y-92327831D01*
X187778232Y-92327831D01*
X187852732Y-92347793D01*
X187883591Y-92371472D01*
X187931892Y-92419773D01*
X188004597Y-92492478D01*
X188093642Y-92543888D01*
X188192960Y-92570500D01*
X191150259Y-92570500D01*
X191224759Y-92590462D01*
X191255613Y-92614137D01*
X191261985Y-92620509D01*
X191261987Y-92620510D01*
X191261988Y-92620511D01*
X191387512Y-92692983D01*
X191387514Y-92692983D01*
X191387515Y-92692984D01*
X191527525Y-92730500D01*
X191672475Y-92730500D01*
X191812485Y-92692984D01*
X191938015Y-92620509D01*
X192040509Y-92518015D01*
X192112984Y-92392485D01*
X192150500Y-92252475D01*
X192150500Y-92107525D01*
X192112984Y-91967515D01*
X192112983Y-91967514D01*
X192112983Y-91967512D01*
X192040511Y-91841988D01*
X192040510Y-91841987D01*
X192040509Y-91841985D01*
X191938015Y-91739491D01*
X191938012Y-91739489D01*
X191938011Y-91739488D01*
X191812487Y-91667016D01*
X191672475Y-91629500D01*
X191527525Y-91629500D01*
X191387512Y-91667016D01*
X191261988Y-91739488D01*
X191261987Y-91739489D01*
X191261985Y-91739490D01*
X191261985Y-91739491D01*
X191255615Y-91745860D01*
X191188823Y-91784423D01*
X191150259Y-91789500D01*
X188529213Y-91789500D01*
X188454713Y-91769538D01*
X188400175Y-91715000D01*
X188385290Y-91679065D01*
X188354685Y-91564846D01*
X188282210Y-91439316D01*
X188179716Y-91336822D01*
X188179713Y-91336820D01*
X188179712Y-91336819D01*
X188054188Y-91264347D01*
X187914176Y-91226831D01*
X187769226Y-91226831D01*
X187629213Y-91264347D01*
X187503689Y-91336819D01*
X187401189Y-91439319D01*
X187328717Y-91564843D01*
X187291201Y-91704854D01*
X179113670Y-91704854D01*
X179180509Y-91638015D01*
X179252984Y-91512485D01*
X179290500Y-91372475D01*
X179290500Y-91227525D01*
X179252984Y-91087515D01*
X179199606Y-90995063D01*
X179184722Y-90959131D01*
X179159799Y-90866114D01*
X179150207Y-90849500D01*
X179100490Y-90763387D01*
X177646688Y-89309585D01*
X181967438Y-89309585D01*
X181967438Y-89454538D01*
X182004954Y-89594549D01*
X182077426Y-89720073D01*
X182077427Y-89720074D01*
X182077429Y-89720077D01*
X182179923Y-89822571D01*
X182179925Y-89822572D01*
X182179926Y-89822573D01*
X182305450Y-89895045D01*
X182305452Y-89895045D01*
X182305453Y-89895046D01*
X182445463Y-89932562D01*
X182590413Y-89932562D01*
X182730423Y-89895046D01*
X182763060Y-89876203D01*
X182804072Y-89852525D01*
X182878572Y-89832562D01*
X184287749Y-89832562D01*
X184362249Y-89852524D01*
X184393103Y-89876199D01*
X184405133Y-89888229D01*
X184405135Y-89888230D01*
X184405136Y-89888231D01*
X184530660Y-89960703D01*
X184530662Y-89960703D01*
X184530663Y-89960704D01*
X184670673Y-89998220D01*
X184815623Y-89998220D01*
X184955633Y-89960704D01*
X185081163Y-89888229D01*
X185183657Y-89785735D01*
X185256132Y-89660205D01*
X185293648Y-89520195D01*
X185293648Y-89375245D01*
X185256132Y-89235235D01*
X185256131Y-89235234D01*
X185256131Y-89235232D01*
X185183659Y-89109708D01*
X185183658Y-89109707D01*
X185183657Y-89109705D01*
X185081163Y-89007211D01*
X185081160Y-89007209D01*
X185081159Y-89007208D01*
X184955635Y-88934736D01*
X184815623Y-88897220D01*
X184670673Y-88897220D01*
X184561454Y-88926485D01*
X184522891Y-88931562D01*
X182878573Y-88931562D01*
X182823488Y-88921006D01*
X182813439Y-88917007D01*
X182730423Y-88869078D01*
X182615762Y-88838354D01*
X182615759Y-88838353D01*
X182590413Y-88831562D01*
X182445463Y-88831562D01*
X182305450Y-88869078D01*
X182179926Y-88941550D01*
X182077426Y-89044050D01*
X182004954Y-89169574D01*
X181967438Y-89309585D01*
X177646688Y-89309585D01*
X177206614Y-88869511D01*
X177206611Y-88869509D01*
X177206607Y-88869506D01*
X177103890Y-88810202D01*
X177103887Y-88810201D01*
X177079673Y-88803713D01*
X176989309Y-88779500D01*
X175860635Y-88779500D01*
X175786135Y-88759538D01*
X175786134Y-88759537D01*
X175712488Y-88717017D01*
X175712485Y-88717016D01*
X175663932Y-88704006D01*
X199274500Y-88704006D01*
X199274500Y-88841993D01*
X199301419Y-88977325D01*
X199301420Y-88977329D01*
X199354224Y-89104809D01*
X199354227Y-89104815D01*
X199389446Y-89157523D01*
X199430886Y-89219542D01*
X199528458Y-89317114D01*
X199528461Y-89317116D01*
X199643184Y-89393772D01*
X199643186Y-89393773D01*
X199643189Y-89393775D01*
X199770672Y-89446580D01*
X199906007Y-89473500D01*
X200043993Y-89473500D01*
X200179328Y-89446580D01*
X200306811Y-89393775D01*
X200421542Y-89317114D01*
X200519114Y-89219542D01*
X200595775Y-89104811D01*
X200648580Y-88977328D01*
X200675500Y-88841993D01*
X200675500Y-88704007D01*
X200648580Y-88568672D01*
X200595775Y-88441189D01*
X200576928Y-88412983D01*
X200519116Y-88326461D01*
X200519114Y-88326458D01*
X200421542Y-88228886D01*
X200421538Y-88228883D01*
X200306815Y-88152227D01*
X200306809Y-88152224D01*
X200179329Y-88099420D01*
X200179325Y-88099419D01*
X200043993Y-88072500D01*
X199906007Y-88072500D01*
X199770674Y-88099419D01*
X199770670Y-88099420D01*
X199643190Y-88152224D01*
X199643184Y-88152227D01*
X199528461Y-88228883D01*
X199528454Y-88228889D01*
X199430889Y-88326454D01*
X199430883Y-88326461D01*
X199354227Y-88441184D01*
X199354224Y-88441190D01*
X199301420Y-88568670D01*
X199301419Y-88568674D01*
X199274500Y-88704006D01*
X175663932Y-88704006D01*
X175572475Y-88679500D01*
X175427525Y-88679500D01*
X175287512Y-88717016D01*
X175161988Y-88789488D01*
X175059488Y-88891988D01*
X174987016Y-89017512D01*
X174949500Y-89157523D01*
X172400500Y-89157523D01*
X172400500Y-87827523D01*
X190299500Y-87827523D01*
X190299500Y-87972476D01*
X190337016Y-88112487D01*
X190409488Y-88238011D01*
X190409489Y-88238012D01*
X190409491Y-88238015D01*
X190511985Y-88340509D01*
X190511987Y-88340510D01*
X190511988Y-88340511D01*
X190637512Y-88412983D01*
X190637514Y-88412983D01*
X190637515Y-88412984D01*
X190777525Y-88450500D01*
X190922475Y-88450500D01*
X191062485Y-88412984D01*
X191065984Y-88410963D01*
X191069892Y-88409916D01*
X191071511Y-88409246D01*
X191071599Y-88409459D01*
X191140483Y-88391000D01*
X191964642Y-88391000D01*
X192089519Y-88357539D01*
X192201481Y-88292898D01*
X193341785Y-87152592D01*
X193403549Y-87116933D01*
X193403462Y-87116721D01*
X193405072Y-87116054D01*
X193408575Y-87114031D01*
X193412485Y-87112984D01*
X193538015Y-87040509D01*
X193640509Y-86938015D01*
X193712984Y-86812485D01*
X193750500Y-86672475D01*
X193750500Y-86527525D01*
X193712984Y-86387515D01*
X193712983Y-86387514D01*
X193712983Y-86387512D01*
X193640511Y-86261988D01*
X193640510Y-86261987D01*
X193640509Y-86261985D01*
X193538015Y-86159491D01*
X193538012Y-86159489D01*
X193538011Y-86159488D01*
X193412487Y-86087016D01*
X193272475Y-86049500D01*
X193127525Y-86049500D01*
X192987512Y-86087016D01*
X192861988Y-86159488D01*
X192759488Y-86261988D01*
X192687015Y-86387515D01*
X192687014Y-86387516D01*
X192685966Y-86391430D01*
X192683942Y-86394934D01*
X192683280Y-86396534D01*
X192683069Y-86396446D01*
X192647405Y-86458214D01*
X191740262Y-87365359D01*
X191673467Y-87403923D01*
X191634903Y-87409000D01*
X191140487Y-87409000D01*
X191071598Y-87390541D01*
X191071511Y-87390754D01*
X191069898Y-87390085D01*
X191065987Y-87389038D01*
X191065988Y-87389038D01*
X191062485Y-87387016D01*
X190922475Y-87349500D01*
X190777525Y-87349500D01*
X190637512Y-87387016D01*
X190511988Y-87459488D01*
X190409488Y-87561988D01*
X190337016Y-87687512D01*
X190299500Y-87827523D01*
X172400500Y-87827523D01*
X172400500Y-87070941D01*
X173024500Y-87070941D01*
X173024500Y-87070943D01*
X173024500Y-87229057D01*
X173065423Y-87381784D01*
X173144480Y-87518716D01*
X173256284Y-87630520D01*
X173393216Y-87709577D01*
X173545943Y-87750500D01*
X173704057Y-87750500D01*
X173856784Y-87709577D01*
X173993716Y-87630520D01*
X174105520Y-87518716D01*
X174184577Y-87381784D01*
X174225500Y-87229057D01*
X174225500Y-87070943D01*
X174184577Y-86918216D01*
X174105520Y-86781284D01*
X173993716Y-86669480D01*
X173856784Y-86590423D01*
X173704057Y-86549500D01*
X173545943Y-86549500D01*
X173393216Y-86590423D01*
X173393214Y-86590423D01*
X173393214Y-86590424D01*
X173256283Y-86669480D01*
X173144480Y-86781283D01*
X173065424Y-86918214D01*
X173024500Y-87070941D01*
X172400500Y-87070941D01*
X172400500Y-85370941D01*
X173024500Y-85370941D01*
X173024500Y-85370943D01*
X173024500Y-85529057D01*
X173065423Y-85681784D01*
X173144480Y-85818716D01*
X173256284Y-85930520D01*
X173393216Y-86009577D01*
X173545943Y-86050500D01*
X173704057Y-86050500D01*
X173856784Y-86009577D01*
X173912304Y-85977523D01*
X181599500Y-85977523D01*
X181599500Y-86122476D01*
X181637016Y-86262487D01*
X181709488Y-86388011D01*
X181709489Y-86388012D01*
X181709491Y-86388015D01*
X181811985Y-86490509D01*
X181811987Y-86490510D01*
X181811988Y-86490511D01*
X181937512Y-86562983D01*
X181937514Y-86562983D01*
X181937515Y-86562984D01*
X182077525Y-86600500D01*
X185860257Y-86600500D01*
X185934757Y-86620462D01*
X185965616Y-86644141D01*
X186705735Y-87384260D01*
X186818735Y-87449500D01*
X186831265Y-87456734D01*
X186971275Y-87494250D01*
X187116225Y-87494250D01*
X187256235Y-87456734D01*
X187268765Y-87449500D01*
X187381764Y-87384260D01*
X187484260Y-87281764D01*
X187556734Y-87156235D01*
X187558271Y-87150500D01*
X187594250Y-87016225D01*
X187594250Y-86871275D01*
X187556734Y-86731265D01*
X187484260Y-86605735D01*
X186488015Y-85609490D01*
X186362485Y-85537016D01*
X186362484Y-85537015D01*
X186332781Y-85529056D01*
X186222475Y-85499500D01*
X182077525Y-85499500D01*
X181937512Y-85537016D01*
X181811988Y-85609488D01*
X181709488Y-85711988D01*
X181637016Y-85837512D01*
X181599500Y-85977523D01*
X173912304Y-85977523D01*
X173993716Y-85930520D01*
X174105520Y-85818716D01*
X174184577Y-85681784D01*
X174225500Y-85529057D01*
X174225500Y-85370943D01*
X174184577Y-85218216D01*
X174105520Y-85081284D01*
X173993716Y-84969480D01*
X173856784Y-84890423D01*
X173704057Y-84849500D01*
X173545943Y-84849500D01*
X173393216Y-84890423D01*
X173393214Y-84890423D01*
X173393214Y-84890424D01*
X173256283Y-84969480D01*
X173144480Y-85081283D01*
X173065424Y-85218214D01*
X173024500Y-85370941D01*
X172400500Y-85370941D01*
X172400500Y-84121941D01*
X188121500Y-84121941D01*
X188121500Y-84121943D01*
X188121500Y-84280057D01*
X188162423Y-84432784D01*
X188241480Y-84569716D01*
X188353284Y-84681520D01*
X188490216Y-84760577D01*
X188642943Y-84801500D01*
X200190798Y-84801500D01*
X200190814Y-84801501D01*
X200199943Y-84801501D01*
X200358052Y-84801501D01*
X200358057Y-84801501D01*
X200510785Y-84760577D01*
X200529813Y-84749590D01*
X200560900Y-84731642D01*
X200560904Y-84731639D01*
X200647716Y-84681520D01*
X200759520Y-84569716D01*
X200759520Y-84569714D01*
X200771782Y-84557453D01*
X200771786Y-84557448D01*
X201778448Y-83550786D01*
X201778453Y-83550782D01*
X201790714Y-83538520D01*
X201790716Y-83538520D01*
X201902520Y-83426716D01*
X201976965Y-83297773D01*
X201981577Y-83289785D01*
X202022500Y-83137057D01*
X202022500Y-82978943D01*
X202022500Y-73208453D01*
X202027577Y-73189505D01*
X202027577Y-73169889D01*
X202037384Y-73152901D01*
X202042462Y-73133953D01*
X202066141Y-73103094D01*
X202125094Y-73044141D01*
X202191889Y-73005577D01*
X202230453Y-73000500D01*
X202279057Y-73000500D01*
X202431784Y-72959577D01*
X202568716Y-72880520D01*
X202680520Y-72768716D01*
X202759577Y-72631784D01*
X202800500Y-72479057D01*
X202800500Y-72320943D01*
X202759577Y-72168216D01*
X202680520Y-72031284D01*
X202568716Y-71919480D01*
X202431784Y-71840423D01*
X202279057Y-71799500D01*
X201999057Y-71799500D01*
X201840942Y-71799500D01*
X201840938Y-71799500D01*
X201800019Y-71810464D01*
X201800019Y-71810465D01*
X201744117Y-71825444D01*
X201688215Y-71840423D01*
X201551283Y-71919480D01*
X200941480Y-72529283D01*
X200891360Y-72616095D01*
X200891359Y-72616096D01*
X200862423Y-72666212D01*
X200821499Y-72818942D01*
X200821499Y-72989061D01*
X200821500Y-72989074D01*
X200821500Y-82747547D01*
X200801538Y-82822047D01*
X200777859Y-82852906D01*
X200073906Y-83556859D01*
X200068624Y-83559908D01*
X200065163Y-83564930D01*
X200035528Y-83579016D01*
X200007111Y-83595423D01*
X200001012Y-83595423D01*
X199995504Y-83598041D01*
X199968547Y-83600500D01*
X199886469Y-83600500D01*
X199811969Y-83580538D01*
X199757431Y-83526000D01*
X199737469Y-83451500D01*
X199757431Y-83377000D01*
X199781110Y-83346141D01*
X199829478Y-83297773D01*
X199829478Y-83297772D01*
X200039771Y-83087479D01*
X200039773Y-83087478D01*
X200112478Y-83014773D01*
X200163888Y-82925728D01*
X200190500Y-82826410D01*
X200190500Y-68267741D01*
X200210462Y-68193241D01*
X200215622Y-68184944D01*
X200223768Y-68172755D01*
X200240509Y-68156015D01*
X200275723Y-68095021D01*
X200278439Y-68090959D01*
X200303887Y-68068647D01*
X200327817Y-68044718D01*
X200332662Y-68043419D01*
X200336434Y-68040113D01*
X200369628Y-68033514D01*
X200402317Y-68024756D01*
X200407161Y-68026054D01*
X200412082Y-68025076D01*
X200444129Y-68035959D01*
X200476817Y-68044718D01*
X200480363Y-68048264D01*
X200485114Y-68049878D01*
X200507425Y-68075326D01*
X200531355Y-68099256D01*
X200533996Y-68105633D01*
X200535960Y-68107873D01*
X200536915Y-68112680D01*
X200546239Y-68135189D01*
X200565423Y-68206784D01*
X200644480Y-68343716D01*
X200756284Y-68455520D01*
X200893216Y-68534577D01*
X201045943Y-68575500D01*
X201204057Y-68575500D01*
X201356784Y-68534577D01*
X201493716Y-68455520D01*
X201605520Y-68343716D01*
X201684577Y-68206784D01*
X201725500Y-68054057D01*
X201725500Y-67485075D01*
X201725501Y-67485062D01*
X201725501Y-67314947D01*
X201725501Y-67314943D01*
X201684577Y-67162216D01*
X201605520Y-67025284D01*
X200835755Y-66255519D01*
X200360082Y-65779846D01*
X200321518Y-65713051D01*
X200321518Y-65635923D01*
X200360082Y-65569128D01*
X200426877Y-65530564D01*
X200504005Y-65530564D01*
X200553021Y-65553944D01*
X200692173Y-65655044D01*
X200692178Y-65655047D01*
X200692184Y-65655051D01*
X200881588Y-65751557D01*
X201083757Y-65817246D01*
X201293713Y-65850500D01*
X201293718Y-65850500D01*
X201506282Y-65850500D01*
X201506287Y-65850500D01*
X201716243Y-65817246D01*
X201918412Y-65751557D01*
X202107816Y-65655051D01*
X202279792Y-65530104D01*
X202430104Y-65379792D01*
X202555051Y-65207816D01*
X202651557Y-65018412D01*
X202717246Y-64816243D01*
X202750500Y-64606287D01*
X202750500Y-64393713D01*
X202717246Y-64183757D01*
X202651557Y-63981588D01*
X202555051Y-63792184D01*
X202430104Y-63620208D01*
X202279792Y-63469896D01*
X202107816Y-63344949D01*
X201918412Y-63248443D01*
X201716243Y-63182754D01*
X201506287Y-63149500D01*
X201293713Y-63149500D01*
X201118749Y-63177211D01*
X201083756Y-63182754D01*
X200881594Y-63248441D01*
X200881588Y-63248443D01*
X200881582Y-63248445D01*
X200881582Y-63248446D01*
X200692182Y-63344950D01*
X200692181Y-63344950D01*
X200520209Y-63469895D01*
X200520206Y-63469897D01*
X200369897Y-63620206D01*
X200369895Y-63620209D01*
X200244950Y-63792181D01*
X200244950Y-63792182D01*
X200244949Y-63792184D01*
X200148443Y-63981588D01*
X200082754Y-64183757D01*
X200049500Y-64393713D01*
X200049500Y-64409811D01*
X200049500Y-64606287D01*
X200082754Y-64816243D01*
X200148443Y-65018412D01*
X200227973Y-65174499D01*
X200244950Y-65207817D01*
X200244950Y-65207818D01*
X200346056Y-65346979D01*
X200355817Y-65372408D01*
X200369435Y-65395995D01*
X200369435Y-65407884D01*
X200373696Y-65418985D01*
X200369435Y-65445886D01*
X200369435Y-65473123D01*
X200363489Y-65483420D01*
X200361630Y-65495163D01*
X200344489Y-65516329D01*
X200330871Y-65539918D01*
X200320574Y-65545862D01*
X200313092Y-65555103D01*
X200287662Y-65564864D01*
X200264076Y-65578482D01*
X200252186Y-65578482D01*
X200241086Y-65582743D01*
X200214184Y-65578482D01*
X200186948Y-65578482D01*
X200176650Y-65572536D01*
X200164908Y-65570677D01*
X200120153Y-65539918D01*
X199995015Y-65414780D01*
X199995013Y-65414777D01*
X199874715Y-65294479D01*
X199787906Y-65244361D01*
X199787905Y-65244360D01*
X199737786Y-65215423D01*
X199585057Y-65174499D01*
X199426943Y-65174499D01*
X199417814Y-65174499D01*
X199417798Y-65174500D01*
X195080732Y-65174500D01*
X195006232Y-65154538D01*
X194981785Y-65140423D01*
X194981782Y-65140422D01*
X194829057Y-65099499D01*
X194670943Y-65099499D01*
X194670942Y-65099499D01*
X194518217Y-65140422D01*
X194518213Y-65140424D01*
X194511188Y-65144480D01*
X194490737Y-65156288D01*
X194476496Y-65164510D01*
X194476494Y-65164511D01*
X194381284Y-65219479D01*
X194269480Y-65331283D01*
X194226179Y-65406284D01*
X194226178Y-65406285D01*
X194190423Y-65468212D01*
X194149499Y-65620942D01*
X194149499Y-65620943D01*
X194149499Y-65779057D01*
X194190423Y-65931785D01*
X194197933Y-65944792D01*
X194197935Y-65944799D01*
X194197937Y-65944799D01*
X194269480Y-66068716D01*
X194344480Y-66143716D01*
X194456284Y-66255520D01*
X194542886Y-66305519D01*
X194593215Y-66334577D01*
X194745943Y-66375501D01*
X194745948Y-66375501D01*
X194913186Y-66375501D01*
X194913202Y-66375500D01*
X199195547Y-66375500D01*
X199270047Y-66395462D01*
X199300906Y-66419141D01*
X199894906Y-67013141D01*
X199933470Y-67079936D01*
X199933470Y-67157064D01*
X199894906Y-67223859D01*
X199828111Y-67262423D01*
X199789547Y-67267500D01*
X199727525Y-67267500D01*
X199587512Y-67305016D01*
X199461988Y-67377488D01*
X199359488Y-67479988D01*
X199305211Y-67574000D01*
X199250673Y-67628538D01*
X199186990Y-67645601D01*
X199187204Y-67647226D01*
X199177523Y-67648500D01*
X199037512Y-67686016D01*
X198911988Y-67758488D01*
X198809488Y-67860988D01*
X198737016Y-67986512D01*
X198699500Y-68126523D01*
X198699500Y-68271476D01*
X198737016Y-68411487D01*
X198809488Y-68537011D01*
X198809489Y-68537012D01*
X198809491Y-68537015D01*
X198815860Y-68543384D01*
X198854423Y-68610177D01*
X198859500Y-68648741D01*
X198859500Y-81502500D01*
X198839538Y-81577000D01*
X198785000Y-81631538D01*
X198710500Y-81651500D01*
X197449741Y-81651500D01*
X197375241Y-81631538D01*
X197344386Y-81607862D01*
X197338015Y-81601491D01*
X197338012Y-81601489D01*
X197338011Y-81601488D01*
X197212487Y-81529016D01*
X197072475Y-81491500D01*
X196927525Y-81491500D01*
X196787512Y-81529016D01*
X196661988Y-81601488D01*
X196559488Y-81703988D01*
X196487016Y-81829512D01*
X196449500Y-81969523D01*
X196449500Y-82114476D01*
X196487016Y-82254487D01*
X196559488Y-82380011D01*
X196559489Y-82380012D01*
X196559491Y-82380015D01*
X196661985Y-82482509D01*
X196661987Y-82482510D01*
X196661988Y-82482511D01*
X196787512Y-82554983D01*
X196787514Y-82554983D01*
X196787515Y-82554984D01*
X196927525Y-82592500D01*
X197072475Y-82592500D01*
X197212485Y-82554984D01*
X197338015Y-82482509D01*
X197344384Y-82476139D01*
X197411177Y-82437577D01*
X197449741Y-82432500D01*
X197861259Y-82432500D01*
X197935759Y-82452462D01*
X197990297Y-82507000D01*
X198010259Y-82581500D01*
X197990297Y-82656000D01*
X197966621Y-82686854D01*
X197949091Y-82704385D01*
X197933489Y-82719987D01*
X197933488Y-82719988D01*
X197861016Y-82845512D01*
X197823500Y-82985523D01*
X197823500Y-83130476D01*
X197825264Y-83137060D01*
X197856836Y-83254887D01*
X197861017Y-83270487D01*
X197922512Y-83377000D01*
X197942474Y-83451500D01*
X197922512Y-83526000D01*
X197867974Y-83580538D01*
X197793474Y-83600500D01*
X188642943Y-83600500D01*
X188490216Y-83641423D01*
X188490214Y-83641423D01*
X188490214Y-83641424D01*
X188353283Y-83720480D01*
X188241480Y-83832283D01*
X188162424Y-83969214D01*
X188121500Y-84121941D01*
X172400500Y-84121941D01*
X172400500Y-83227523D01*
X182709500Y-83227523D01*
X182709500Y-83372476D01*
X182747016Y-83512487D01*
X182819488Y-83638011D01*
X182819489Y-83638012D01*
X182819491Y-83638015D01*
X182921985Y-83740509D01*
X182921987Y-83740510D01*
X182921988Y-83740511D01*
X183047512Y-83812983D01*
X183047514Y-83812983D01*
X183047515Y-83812984D01*
X183187525Y-83850500D01*
X183332475Y-83850500D01*
X183472485Y-83812984D01*
X183525500Y-83782375D01*
X183599998Y-83762413D01*
X183674496Y-83782373D01*
X183727515Y-83812984D01*
X183867525Y-83850500D01*
X184012475Y-83850500D01*
X184152485Y-83812984D01*
X184278015Y-83740509D01*
X184380509Y-83638015D01*
X184452984Y-83512485D01*
X184490500Y-83372475D01*
X184490500Y-83227525D01*
X184452984Y-83087515D01*
X184452983Y-83087514D01*
X184452983Y-83087512D01*
X184380511Y-82961988D01*
X184380506Y-82961982D01*
X184278017Y-82859492D01*
X184244999Y-82840429D01*
X184190461Y-82785891D01*
X184170500Y-82711392D01*
X184170500Y-81715523D01*
X184742500Y-81715523D01*
X184742500Y-81860476D01*
X184780016Y-82000487D01*
X184852488Y-82126011D01*
X184852489Y-82126012D01*
X184852491Y-82126015D01*
X184858860Y-82132384D01*
X184897423Y-82199177D01*
X184902500Y-82237741D01*
X184902500Y-82839811D01*
X184929113Y-82939132D01*
X184963499Y-82998688D01*
X184963500Y-82998692D01*
X184963501Y-82998692D01*
X184980519Y-83028170D01*
X184980522Y-83028173D01*
X185234520Y-83282171D01*
X185234522Y-83282173D01*
X185307227Y-83354878D01*
X185396272Y-83406288D01*
X185495590Y-83432900D01*
X186750259Y-83432900D01*
X186824759Y-83452862D01*
X186855613Y-83476537D01*
X186861985Y-83482909D01*
X186861987Y-83482910D01*
X186861988Y-83482911D01*
X186987512Y-83555383D01*
X186987514Y-83555383D01*
X186987515Y-83555384D01*
X187127525Y-83592900D01*
X187272475Y-83592900D01*
X187412485Y-83555384D01*
X187441693Y-83538521D01*
X187463379Y-83526000D01*
X187538015Y-83482909D01*
X187640509Y-83380415D01*
X187712984Y-83254885D01*
X187750500Y-83114875D01*
X187750500Y-82969925D01*
X187712984Y-82829915D01*
X187712983Y-82829914D01*
X187712983Y-82829912D01*
X187640511Y-82704388D01*
X187640510Y-82704387D01*
X187640509Y-82704385D01*
X187538015Y-82601891D01*
X187538012Y-82601889D01*
X187538011Y-82601888D01*
X187412487Y-82529416D01*
X187272475Y-82491900D01*
X187127525Y-82491900D01*
X186987512Y-82529416D01*
X186861988Y-82601888D01*
X186861987Y-82601889D01*
X186861985Y-82601890D01*
X186861985Y-82601891D01*
X186855615Y-82608260D01*
X186788823Y-82646823D01*
X186750259Y-82651900D01*
X185832500Y-82651900D01*
X185758000Y-82631938D01*
X185703462Y-82577400D01*
X185683500Y-82502900D01*
X185683500Y-82237741D01*
X185703462Y-82163241D01*
X185727137Y-82132386D01*
X185733509Y-82126015D01*
X185805984Y-82000485D01*
X185843500Y-81860475D01*
X185843500Y-81715525D01*
X185805984Y-81575515D01*
X185805983Y-81575514D01*
X185805983Y-81575512D01*
X185733511Y-81449988D01*
X185733510Y-81449987D01*
X185733509Y-81449985D01*
X185631015Y-81347491D01*
X185631012Y-81347489D01*
X185631011Y-81347488D01*
X185505487Y-81275016D01*
X185365475Y-81237500D01*
X185220525Y-81237500D01*
X185080512Y-81275016D01*
X184954988Y-81347488D01*
X184852488Y-81449988D01*
X184780016Y-81575512D01*
X184742500Y-81715523D01*
X184170500Y-81715523D01*
X184170500Y-79998027D01*
X184190462Y-79923527D01*
X184214137Y-79892672D01*
X188307505Y-75799303D01*
X188307510Y-75799300D01*
X188319771Y-75787038D01*
X188319773Y-75787038D01*
X188392478Y-75714333D01*
X188443888Y-75625288D01*
X188470500Y-75525970D01*
X188470500Y-71004916D01*
X188490462Y-70930416D01*
X188545000Y-70875878D01*
X188545054Y-70875851D01*
X188553482Y-70870984D01*
X188553485Y-70870984D01*
X188679015Y-70798509D01*
X188781509Y-70696015D01*
X188853984Y-70570485D01*
X188891500Y-70430475D01*
X188891500Y-70285525D01*
X188853984Y-70145515D01*
X188853983Y-70145514D01*
X188853983Y-70145512D01*
X188781511Y-70019988D01*
X188781510Y-70019987D01*
X188781509Y-70019985D01*
X188679015Y-69917491D01*
X188679012Y-69917489D01*
X188679011Y-69917488D01*
X188553487Y-69845016D01*
X188413475Y-69807500D01*
X188268525Y-69807500D01*
X188128512Y-69845016D01*
X188002988Y-69917488D01*
X188002987Y-69917489D01*
X188002985Y-69917490D01*
X188002985Y-69917491D01*
X188001856Y-69918619D01*
X188000478Y-69919415D01*
X187995244Y-69923432D01*
X187994714Y-69922742D01*
X187935064Y-69957182D01*
X187857936Y-69957182D01*
X187798285Y-69922742D01*
X187797756Y-69923432D01*
X187792521Y-69919415D01*
X187791143Y-69918619D01*
X187790015Y-69917491D01*
X187790012Y-69917489D01*
X187790011Y-69917488D01*
X187664487Y-69845016D01*
X187524475Y-69807500D01*
X187379525Y-69807500D01*
X187239512Y-69845016D01*
X187113988Y-69917488D01*
X187011488Y-70019988D01*
X186939016Y-70145512D01*
X186901500Y-70285523D01*
X186901500Y-70430476D01*
X186939016Y-70570487D01*
X187011488Y-70696011D01*
X187011489Y-70696012D01*
X187011491Y-70696015D01*
X187113985Y-70798509D01*
X187113987Y-70798510D01*
X187113988Y-70798511D01*
X187247973Y-70875867D01*
X187247047Y-70877470D01*
X187298702Y-70917100D01*
X187328224Y-70988354D01*
X187329500Y-71007815D01*
X187329500Y-75101970D01*
X187309538Y-75176470D01*
X187285859Y-75207329D01*
X183159269Y-79333919D01*
X183107522Y-79385665D01*
X183056113Y-79474710D01*
X183029500Y-79574028D01*
X183029500Y-82711392D01*
X183009538Y-82785892D01*
X182955001Y-82840429D01*
X182921982Y-82859492D01*
X182819493Y-82961982D01*
X182819488Y-82961988D01*
X182747016Y-83087512D01*
X182709500Y-83227523D01*
X172400500Y-83227523D01*
X172400500Y-64393713D01*
X174049500Y-64393713D01*
X174049500Y-64409811D01*
X174049500Y-64606287D01*
X174082754Y-64816243D01*
X174148443Y-65018412D01*
X174227973Y-65174499D01*
X174244950Y-65207817D01*
X174244950Y-65207818D01*
X174306993Y-65293213D01*
X174369896Y-65379792D01*
X174520208Y-65530104D01*
X174692184Y-65655051D01*
X174881588Y-65751557D01*
X175083757Y-65817246D01*
X175293713Y-65850500D01*
X175293718Y-65850500D01*
X175506282Y-65850500D01*
X175506287Y-65850500D01*
X175716243Y-65817246D01*
X175918412Y-65751557D01*
X176107816Y-65655051D01*
X176279792Y-65530104D01*
X176363953Y-65445943D01*
X185799499Y-65445943D01*
X185799499Y-65604057D01*
X185840423Y-65756785D01*
X185919481Y-65893716D01*
X186219478Y-66193713D01*
X186219480Y-66193716D01*
X186331284Y-66305520D01*
X186381613Y-66334577D01*
X186424914Y-66359577D01*
X186468211Y-66384575D01*
X186468212Y-66384575D01*
X186468215Y-66384577D01*
X186620943Y-66425500D01*
X190561798Y-66425500D01*
X190561814Y-66425501D01*
X190570943Y-66425501D01*
X190729052Y-66425501D01*
X190729057Y-66425501D01*
X190881785Y-66384577D01*
X190881789Y-66384575D01*
X190956036Y-66341708D01*
X190956036Y-66341707D01*
X190968387Y-66334577D01*
X191018716Y-66305520D01*
X191130520Y-66193716D01*
X191130520Y-66193714D01*
X191330520Y-65993716D01*
X191409577Y-65856784D01*
X191450501Y-65704057D01*
X191450501Y-65545942D01*
X191409577Y-65393215D01*
X191401823Y-65379785D01*
X191330521Y-65256285D01*
X191218714Y-65144478D01*
X191081786Y-65065423D01*
X191003619Y-65044478D01*
X190929058Y-65024499D01*
X190770943Y-65024499D01*
X190618216Y-65065423D01*
X190481283Y-65144480D01*
X190444905Y-65180859D01*
X190378110Y-65219423D01*
X190339546Y-65224500D01*
X187010453Y-65224500D01*
X186935953Y-65204538D01*
X186905094Y-65180859D01*
X186864657Y-65140422D01*
X186768716Y-65044481D01*
X186631785Y-64965423D01*
X186631782Y-64965422D01*
X186479057Y-64924499D01*
X186320943Y-64924499D01*
X186320942Y-64924499D01*
X186168217Y-64965422D01*
X186168213Y-64965424D01*
X186031288Y-65044478D01*
X186031283Y-65044482D01*
X185919482Y-65156283D01*
X185919478Y-65156288D01*
X185840424Y-65293213D01*
X185840422Y-65293217D01*
X185810125Y-65406285D01*
X185799499Y-65445943D01*
X176363953Y-65445943D01*
X176430104Y-65379792D01*
X176555051Y-65207816D01*
X176651557Y-65018412D01*
X176717246Y-64816243D01*
X176750500Y-64606287D01*
X176750500Y-64393713D01*
X176717246Y-64183757D01*
X176651557Y-63981588D01*
X176555051Y-63792184D01*
X176430104Y-63620208D01*
X176279792Y-63469896D01*
X176107816Y-63344949D01*
X175918412Y-63248443D01*
X175716243Y-63182754D01*
X175506287Y-63149500D01*
X175293713Y-63149500D01*
X175118749Y-63177211D01*
X175083756Y-63182754D01*
X174881594Y-63248441D01*
X174881588Y-63248443D01*
X174881582Y-63248445D01*
X174881582Y-63248446D01*
X174692182Y-63344950D01*
X174692181Y-63344950D01*
X174520209Y-63469895D01*
X174520206Y-63469897D01*
X174369897Y-63620206D01*
X174369895Y-63620209D01*
X174244950Y-63792181D01*
X174244950Y-63792182D01*
X174244949Y-63792184D01*
X174148443Y-63981588D01*
X174082754Y-64183757D01*
X174049500Y-64393713D01*
X172400500Y-64393713D01*
X172400500Y-61502230D01*
X184934500Y-61502230D01*
X184934500Y-61653769D01*
X184973720Y-61800137D01*
X185049482Y-61931361D01*
X185049483Y-61931362D01*
X185049485Y-61931365D01*
X185156635Y-62038515D01*
X185287865Y-62114281D01*
X185434234Y-62153500D01*
X185585766Y-62153500D01*
X185732135Y-62114281D01*
X185863365Y-62038515D01*
X185970515Y-61931365D01*
X186046281Y-61800135D01*
X186085500Y-61653766D01*
X186085500Y-61502234D01*
X186085499Y-61502230D01*
X190714500Y-61502230D01*
X190714500Y-61653769D01*
X190753720Y-61800137D01*
X190829482Y-61931361D01*
X190829483Y-61931362D01*
X190829485Y-61931365D01*
X190936635Y-62038515D01*
X191067865Y-62114281D01*
X191214234Y-62153500D01*
X191365766Y-62153500D01*
X191512135Y-62114281D01*
X191643365Y-62038515D01*
X191750515Y-61931365D01*
X191826281Y-61800135D01*
X191865500Y-61653766D01*
X191865500Y-61502234D01*
X191826281Y-61355865D01*
X191788398Y-61290250D01*
X191750517Y-61224638D01*
X191750516Y-61224637D01*
X191750515Y-61224635D01*
X191643365Y-61117485D01*
X191643362Y-61117483D01*
X191643361Y-61117482D01*
X191512137Y-61041720D01*
X191512136Y-61041719D01*
X191512135Y-61041719D01*
X191458561Y-61027364D01*
X191365769Y-61002500D01*
X191365766Y-61002500D01*
X191214234Y-61002500D01*
X191214230Y-61002500D01*
X191090506Y-61035652D01*
X191067865Y-61041719D01*
X191067864Y-61041719D01*
X191067862Y-61041720D01*
X190936638Y-61117482D01*
X190829482Y-61224638D01*
X190753720Y-61355862D01*
X190714500Y-61502230D01*
X186085499Y-61502230D01*
X186046281Y-61355865D01*
X186008398Y-61290250D01*
X185970517Y-61224638D01*
X185970516Y-61224637D01*
X185970515Y-61224635D01*
X185863365Y-61117485D01*
X185863362Y-61117483D01*
X185863361Y-61117482D01*
X185732137Y-61041720D01*
X185732136Y-61041719D01*
X185732135Y-61041719D01*
X185678561Y-61027364D01*
X185585769Y-61002500D01*
X185585766Y-61002500D01*
X185434234Y-61002500D01*
X185434230Y-61002500D01*
X185310506Y-61035652D01*
X185287865Y-61041719D01*
X185287864Y-61041719D01*
X185287862Y-61041720D01*
X185156638Y-61117482D01*
X185049482Y-61224638D01*
X184973720Y-61355862D01*
X184934500Y-61502230D01*
X172400500Y-61502230D01*
X172400500Y-61105857D01*
X172400959Y-61094167D01*
X172416810Y-60892757D01*
X172416810Y-60892756D01*
X172420468Y-60869664D01*
X172423561Y-60856784D01*
X172466258Y-60678933D01*
X172473483Y-60656699D01*
X172519360Y-60545941D01*
X175549500Y-60545941D01*
X175549500Y-60545943D01*
X175549500Y-60704057D01*
X175590423Y-60856784D01*
X175669480Y-60993716D01*
X175781284Y-61105520D01*
X175918216Y-61184577D01*
X176070943Y-61225500D01*
X176229057Y-61225500D01*
X176381784Y-61184577D01*
X176518716Y-61105520D01*
X176630520Y-60993716D01*
X176709577Y-60856784D01*
X176750500Y-60704057D01*
X176750500Y-60545943D01*
X176750499Y-60545941D01*
X177249500Y-60545941D01*
X177249500Y-60545943D01*
X177249500Y-60704057D01*
X177290423Y-60856784D01*
X177369480Y-60993716D01*
X177481284Y-61105520D01*
X177618216Y-61184577D01*
X177770943Y-61225500D01*
X177929057Y-61225500D01*
X178081784Y-61184577D01*
X178218716Y-61105520D01*
X178330520Y-60993716D01*
X178409577Y-60856784D01*
X178450500Y-60704057D01*
X178450500Y-60545943D01*
X178450499Y-60545941D01*
X198349500Y-60545941D01*
X198349500Y-60545943D01*
X198349500Y-60704057D01*
X198390423Y-60856784D01*
X198469480Y-60993716D01*
X198581284Y-61105520D01*
X198718216Y-61184577D01*
X198870943Y-61225500D01*
X199029057Y-61225500D01*
X199181784Y-61184577D01*
X199318716Y-61105520D01*
X199430520Y-60993716D01*
X199509577Y-60856784D01*
X199550500Y-60704057D01*
X199550500Y-60545943D01*
X199550499Y-60545941D01*
X200049500Y-60545941D01*
X200049500Y-60545943D01*
X200049500Y-60704057D01*
X200090423Y-60856784D01*
X200169480Y-60993716D01*
X200281284Y-61105520D01*
X200418216Y-61184577D01*
X200570943Y-61225500D01*
X200729057Y-61225500D01*
X200881784Y-61184577D01*
X201018716Y-61105520D01*
X201130520Y-60993716D01*
X201209577Y-60856784D01*
X201250500Y-60704057D01*
X201250500Y-60545943D01*
X201209577Y-60393216D01*
X201130520Y-60256284D01*
X201018716Y-60144480D01*
X200881784Y-60065423D01*
X200729057Y-60024500D01*
X200570943Y-60024500D01*
X200418216Y-60065423D01*
X200418214Y-60065423D01*
X200418214Y-60065424D01*
X200281283Y-60144480D01*
X200169480Y-60256283D01*
X200090424Y-60393214D01*
X200049500Y-60545941D01*
X199550499Y-60545941D01*
X199509577Y-60393216D01*
X199430520Y-60256284D01*
X199318716Y-60144480D01*
X199181784Y-60065423D01*
X199029057Y-60024500D01*
X198870943Y-60024500D01*
X198718216Y-60065423D01*
X198718214Y-60065423D01*
X198718214Y-60065424D01*
X198581283Y-60144480D01*
X198469480Y-60256283D01*
X198390424Y-60393214D01*
X198349500Y-60545941D01*
X178450499Y-60545941D01*
X178409577Y-60393216D01*
X178330520Y-60256284D01*
X178218716Y-60144480D01*
X178081784Y-60065423D01*
X177929057Y-60024500D01*
X177770943Y-60024500D01*
X177618216Y-60065423D01*
X177618214Y-60065423D01*
X177618214Y-60065424D01*
X177481283Y-60144480D01*
X177369480Y-60256283D01*
X177290424Y-60393214D01*
X177249500Y-60545941D01*
X176750499Y-60545941D01*
X176709577Y-60393216D01*
X176630520Y-60256284D01*
X176518716Y-60144480D01*
X176381784Y-60065423D01*
X176229057Y-60024500D01*
X176070943Y-60024500D01*
X175918216Y-60065423D01*
X175918214Y-60065423D01*
X175918214Y-60065424D01*
X175781283Y-60144480D01*
X175669480Y-60256283D01*
X175590424Y-60393214D01*
X175549500Y-60545941D01*
X172519360Y-60545941D01*
X172547022Y-60479158D01*
X172547026Y-60479152D01*
X172547027Y-60479146D01*
X172548555Y-60475457D01*
X172559163Y-60454641D01*
X172596806Y-60393214D01*
X172661658Y-60287385D01*
X172675391Y-60268484D01*
X172802795Y-60119312D01*
X172819312Y-60102795D01*
X172968484Y-59975391D01*
X172987385Y-59961658D01*
X173154645Y-59859160D01*
X173175469Y-59848550D01*
X173356699Y-59773482D01*
X173378933Y-59766258D01*
X173569668Y-59720467D01*
X173592754Y-59716810D01*
X173794168Y-59700959D01*
X173805858Y-59700500D01*
X183519990Y-59700500D01*
X183519991Y-59700500D01*
X183556929Y-59685200D01*
X183585200Y-59656929D01*
X183600500Y-59619991D01*
X183600500Y-57509764D01*
X183601775Y-57490316D01*
X183603132Y-57480009D01*
X183611553Y-57416048D01*
X183621616Y-57378485D01*
X183646517Y-57318369D01*
X183665962Y-57284691D01*
X183705569Y-57233074D01*
X183733074Y-57205569D01*
X183784691Y-57165962D01*
X183818369Y-57146517D01*
X183878485Y-57121616D01*
X183916045Y-57111553D01*
X183972583Y-57104109D01*
X183990317Y-57101775D01*
X184009765Y-57100500D01*
X184026929Y-57100500D01*
X192773071Y-57100500D01*
X192790235Y-57100500D01*
X192809683Y-57101775D01*
G37*
%TD.AperFunction*%
%TD*%
M02*
