M48
; DRILL file {KiCad 9.0.0} date 2025-09-16T23:46:19+0200
; FORMAT={-:-/ absolute / inch / decimal}
; #@! TF.CreationDate,2025-09-16T23:46:19+02:00
; #@! TF.GenerationSoftware,Kicad,Pcbnew,9.0.0
; #@! TF.FileFunction,Plated,1,2,PTH
FMAT,2
INCH
; #@! TA.AperFunction,Plated,PTH,ViaDrill
T1C0.0118
; #@! TA.AperFunction,Plated,PTH,ComponentDrill
T2C0.0138
; #@! TA.AperFunction,Plated,PTH,ComponentDrill
T3C0.0236
%
G90
G05
T1
X6.8189Y-4.0394
X6.8224Y-3.01
X6.825Y-3.105
X6.8268Y-2.5118
X6.8327Y-3.2323
X6.8386Y-2.4094
X6.8386Y-3.8858
X6.8424Y-2.4499
X6.85Y-2.83
X6.878Y-2.6299
X6.8858Y-3.8858
X6.8949Y-3.287
X6.9094Y-3.513
X6.9146Y-3.2335
X6.9232Y-3.8799
X6.9685Y-2.7953
X6.9724Y-3.2362
X6.9744Y-3.7421
X6.9961Y-4.0551
X7.0039Y-2.5512
X7.015Y-3.01
X7.0177Y-3.3642
X7.0217Y-3.3248
X7.0293Y-3.768
X7.0293Y-3.7992
X7.0311Y-2.78
X7.0361Y-2.925
X7.037Y-3.5945
X7.0394Y-2.6772
X7.0394Y-3.4134
X7.0394Y-3.4547
X7.0472Y-3.8858
X7.05Y-3.075
X7.0709Y-3.8661
X7.0748Y-3.2126
X7.0837Y-4.0807
X7.0866Y-2.5591
X7.0866Y-4.0433
X7.0984Y-2.373
X7.12Y-4.067
X7.1226Y-4.0415
X7.1299Y-2.4882
X7.133Y-3.8752
X7.1378Y-3.4016
X7.1467Y-2.3711
X7.159Y-3.8763
X7.1654Y-3.4232
X7.1713Y-3.3878
X7.1857Y-3.519
X7.1929Y-2.6732
X7.2047Y-3.4252
X7.2129Y-3.8819
X7.215Y-3.2795
X7.2244Y-3.7874
X7.2323Y-4.035
X7.2417Y-3.2795
X7.252Y-2.5551
X7.2691Y-3.9252
X7.2715Y-3.8958
X7.2717Y-3.4262
X7.2717Y-4.0709
X7.2734Y-3.5216
X7.295Y-3.22
X7.3016Y-4.0949
X7.3031Y-3.2992
X7.3059Y-2.3252
X7.3173Y-4.0287
X7.3209Y-3.3504
X7.3386Y-2.5797
X7.3386Y-3.5669
X7.3639Y-3.423
X7.3701Y-3.2694
X7.3759Y-3.7313
X7.38Y-2.77
X7.3817Y-3.7574
X7.3831Y-3.9063
X7.3898Y-3.5217
X7.3914Y-3.6912
X7.3953Y-3.6133
X7.4031Y-2.3252
X7.415Y-2.77
X7.4291Y-3.9063
X7.43Y-3.315
X7.435Y-2.93
X7.4764Y-2.5512
X7.4803Y-3.4882
X7.4843Y-2.3248
X7.4882Y-2.6299
X7.4913Y-4.0709
X7.492Y-2.7553
X7.4961Y-3.7843
X7.5138Y-2.5837
X7.5138Y-3.4606
X7.5391Y-2.7553
X7.5433Y-3.6291
X7.5433Y-3.937
X7.5472Y-3.8189
X7.5504Y-2.3256
X7.5709Y-3.9449
X7.5748Y-3.7028
X7.5846Y-3.8189
X7.5866Y-2.5472
X7.5945Y-2.6535
X7.6028Y-4.0697
X7.6043Y-3.7185
X7.6063Y-3.4094
X7.6142Y-3.9409
X7.6222Y-3.7384
X7.6224Y-4.0409
X7.6398Y-3.7657
X7.6535Y-2.4764
X7.66Y-3.285
X7.6657Y-2.5484
X7.6673Y-2.5866
X7.6712Y-4.0472
X7.6929Y-3.4252
X7.7106Y-4.0453
X7.7146Y-3.9331
X7.715Y-3.78
X7.7157Y-2.3799
X7.735Y-3.215
X7.752Y-2.5512
X7.7559Y-3.23
X7.77Y-2.755
X7.7756Y-3.8504
X7.7795Y-3.7638
X7.8Y-3.13
X7.81Y-3.27
X7.811Y-2.6654
X7.8186Y-2.7532
X7.8346Y-3.5787
X7.8346Y-4.0512
X7.8445Y-2.685
X7.8622Y-3.4291
X7.8622Y-3.9862
X7.8661Y-2.67
X7.8855Y-3.065
X7.8917Y-2.4535
X7.9183Y-2.6762
X7.96Y-3.25
X7.9606Y-2.8504
X7.9646Y-3.815
X7.9764Y-2.6417
X7.9843Y-3.4134
X7.9961Y-2.4488
X8.0039Y-2.7126
X8.0039Y-3.9528
X8.0079Y-2.5472
X8.0118Y-2.8819
X8.0197Y-3.0827
X8.0197Y-4.0315
T2
X7.1518Y-3.6566
X7.1518Y-3.7068
X7.1518Y-3.757
X7.202Y-3.6566
X7.202Y-3.7068
X7.202Y-3.757
X7.2522Y-3.6566
X7.2522Y-3.7068
X7.2522Y-3.757
T3
G00X7.2472Y-2.2924
M15
G01X7.2472Y-2.2688
M16
G05
G00X7.2472Y-2.4669
M15
G01X7.2472Y-2.4235
M16
G05
G00X7.5874Y-2.2924
M15
G01X7.5874Y-2.2688
M16
G05
G00X7.5874Y-2.4669
M15
G01X7.5874Y-2.4235
M16
G05
M30
