%TF.GenerationSoftware,KiCad,Pcbnew,9.0.2*%
%TF.CreationDate,2025-09-17T10:45:07+02:00*%
%TF.ProjectId,flipper-mce,666c6970-7065-4722-9d6d-63652e6b6963,rev?*%
%TF.SameCoordinates,Original*%
%TF.FileFunction,Legend,Bot*%
%TF.FilePolarity,Positive*%
%FSLAX46Y46*%
G04 Gerber Fmt 4.6, Leading zero omitted, Abs format (unit mm)*
G04 Created by KiCad (PCBNEW 9.0.2) date 2025-09-17 10:45:07*
%MOMM*%
%LPD*%
G01*
G04 APERTURE LIST*
%ADD10C,0.120000*%
%ADD11C,0.000000*%
%ADD12C,0.100000*%
%ADD13C,0.650000*%
%ADD14O,1.000000X2.100000*%
%ADD15O,1.000000X1.600000*%
%ADD16C,0.700000*%
%ADD17C,0.900000*%
%ADD18C,1.000000*%
G04 APERTURE END LIST*
D10*
X177460262Y-98840100D02*
X177460262Y-98354386D01*
X176610262Y-98597243D02*
X177460262Y-98597243D01*
X177460262Y-98152005D02*
X176610262Y-97585338D01*
X177460262Y-97585338D02*
X176610262Y-98152005D01*
X192250739Y-97859148D02*
X192210262Y-97737719D01*
X192210262Y-97737719D02*
X192210262Y-97535338D01*
X192210262Y-97535338D02*
X192250739Y-97454386D01*
X192250739Y-97454386D02*
X192291215Y-97413910D01*
X192291215Y-97413910D02*
X192372167Y-97373433D01*
X192372167Y-97373433D02*
X192453119Y-97373433D01*
X192453119Y-97373433D02*
X192534072Y-97413910D01*
X192534072Y-97413910D02*
X192574548Y-97454386D01*
X192574548Y-97454386D02*
X192615024Y-97535338D01*
X192615024Y-97535338D02*
X192655500Y-97697243D01*
X192655500Y-97697243D02*
X192695977Y-97778195D01*
X192695977Y-97778195D02*
X192736453Y-97818672D01*
X192736453Y-97818672D02*
X192817405Y-97859148D01*
X192817405Y-97859148D02*
X192898358Y-97859148D01*
X192898358Y-97859148D02*
X192979310Y-97818672D01*
X192979310Y-97818672D02*
X193019786Y-97778195D01*
X193019786Y-97778195D02*
X193060262Y-97697243D01*
X193060262Y-97697243D02*
X193060262Y-97494862D01*
X193060262Y-97494862D02*
X193019786Y-97373433D01*
X193060262Y-97090100D02*
X192210262Y-96887719D01*
X192210262Y-96887719D02*
X192817405Y-96725814D01*
X192817405Y-96725814D02*
X192210262Y-96563909D01*
X192210262Y-96563909D02*
X193060262Y-96361529D01*
X192210262Y-96037719D02*
X193060262Y-96037719D01*
X193060262Y-96037719D02*
X193060262Y-95835338D01*
X193060262Y-95835338D02*
X193019786Y-95713909D01*
X193019786Y-95713909D02*
X192938834Y-95632957D01*
X192938834Y-95632957D02*
X192857881Y-95592480D01*
X192857881Y-95592480D02*
X192695977Y-95552004D01*
X192695977Y-95552004D02*
X192574548Y-95552004D01*
X192574548Y-95552004D02*
X192412643Y-95592480D01*
X192412643Y-95592480D02*
X192331691Y-95632957D01*
X192331691Y-95632957D02*
X192250739Y-95713909D01*
X192250739Y-95713909D02*
X192210262Y-95835338D01*
X192210262Y-95835338D02*
X192210262Y-96037719D01*
X197919786Y-97373433D02*
X197960262Y-97454386D01*
X197960262Y-97454386D02*
X197960262Y-97575814D01*
X197960262Y-97575814D02*
X197919786Y-97697243D01*
X197919786Y-97697243D02*
X197838834Y-97778195D01*
X197838834Y-97778195D02*
X197757881Y-97818672D01*
X197757881Y-97818672D02*
X197595977Y-97859148D01*
X197595977Y-97859148D02*
X197474548Y-97859148D01*
X197474548Y-97859148D02*
X197312643Y-97818672D01*
X197312643Y-97818672D02*
X197231691Y-97778195D01*
X197231691Y-97778195D02*
X197150739Y-97697243D01*
X197150739Y-97697243D02*
X197110262Y-97575814D01*
X197110262Y-97575814D02*
X197110262Y-97494862D01*
X197110262Y-97494862D02*
X197150739Y-97373433D01*
X197150739Y-97373433D02*
X197191215Y-97332957D01*
X197191215Y-97332957D02*
X197474548Y-97332957D01*
X197474548Y-97332957D02*
X197474548Y-97494862D01*
X197110262Y-96968672D02*
X197960262Y-96968672D01*
X197960262Y-96968672D02*
X197110262Y-96482957D01*
X197110262Y-96482957D02*
X197960262Y-96482957D01*
X197110262Y-96078196D02*
X197960262Y-96078196D01*
X197960262Y-96078196D02*
X197960262Y-95875815D01*
X197960262Y-95875815D02*
X197919786Y-95754386D01*
X197919786Y-95754386D02*
X197838834Y-95673434D01*
X197838834Y-95673434D02*
X197757881Y-95632957D01*
X197757881Y-95632957D02*
X197595977Y-95592481D01*
X197595977Y-95592481D02*
X197474548Y-95592481D01*
X197474548Y-95592481D02*
X197312643Y-95632957D01*
X197312643Y-95632957D02*
X197231691Y-95673434D01*
X197231691Y-95673434D02*
X197150739Y-95754386D01*
X197150739Y-95754386D02*
X197110262Y-95875815D01*
X197110262Y-95875815D02*
X197110262Y-96078196D01*
X189691215Y-97232957D02*
X189650739Y-97273433D01*
X189650739Y-97273433D02*
X189610262Y-97394862D01*
X189610262Y-97394862D02*
X189610262Y-97475814D01*
X189610262Y-97475814D02*
X189650739Y-97597243D01*
X189650739Y-97597243D02*
X189731691Y-97678195D01*
X189731691Y-97678195D02*
X189812643Y-97718672D01*
X189812643Y-97718672D02*
X189974548Y-97759148D01*
X189974548Y-97759148D02*
X190095977Y-97759148D01*
X190095977Y-97759148D02*
X190257881Y-97718672D01*
X190257881Y-97718672D02*
X190338834Y-97678195D01*
X190338834Y-97678195D02*
X190419786Y-97597243D01*
X190419786Y-97597243D02*
X190460262Y-97475814D01*
X190460262Y-97475814D02*
X190460262Y-97394862D01*
X190460262Y-97394862D02*
X190419786Y-97273433D01*
X190419786Y-97273433D02*
X190379310Y-97232957D01*
X189610262Y-96463910D02*
X189610262Y-96868672D01*
X189610262Y-96868672D02*
X190460262Y-96868672D01*
X189610262Y-96180577D02*
X190460262Y-96180577D01*
X189610262Y-95694862D02*
X190095977Y-96059148D01*
X190460262Y-95694862D02*
X189974548Y-96180577D01*
X179110262Y-98332957D02*
X179515024Y-98616291D01*
X179110262Y-98818672D02*
X179960262Y-98818672D01*
X179960262Y-98818672D02*
X179960262Y-98494862D01*
X179960262Y-98494862D02*
X179919786Y-98413910D01*
X179919786Y-98413910D02*
X179879310Y-98373433D01*
X179879310Y-98373433D02*
X179798358Y-98332957D01*
X179798358Y-98332957D02*
X179676929Y-98332957D01*
X179676929Y-98332957D02*
X179595977Y-98373433D01*
X179595977Y-98373433D02*
X179555500Y-98413910D01*
X179555500Y-98413910D02*
X179515024Y-98494862D01*
X179515024Y-98494862D02*
X179515024Y-98818672D01*
X179960262Y-98049624D02*
X179110262Y-97482957D01*
X179960262Y-97482957D02*
X179110262Y-98049624D01*
X195660262Y-97899624D02*
X195660262Y-97373433D01*
X195660262Y-97373433D02*
X195336453Y-97656767D01*
X195336453Y-97656767D02*
X195336453Y-97535338D01*
X195336453Y-97535338D02*
X195295977Y-97454386D01*
X195295977Y-97454386D02*
X195255500Y-97413910D01*
X195255500Y-97413910D02*
X195174548Y-97373433D01*
X195174548Y-97373433D02*
X194972167Y-97373433D01*
X194972167Y-97373433D02*
X194891215Y-97413910D01*
X194891215Y-97413910D02*
X194850739Y-97454386D01*
X194850739Y-97454386D02*
X194810262Y-97535338D01*
X194810262Y-97535338D02*
X194810262Y-97778195D01*
X194810262Y-97778195D02*
X194850739Y-97859148D01*
X194850739Y-97859148D02*
X194891215Y-97899624D01*
X195660262Y-97130576D02*
X194810262Y-96847243D01*
X194810262Y-96847243D02*
X195660262Y-96563909D01*
X195660262Y-96361529D02*
X195660262Y-95835338D01*
X195660262Y-95835338D02*
X195336453Y-96118672D01*
X195336453Y-96118672D02*
X195336453Y-95997243D01*
X195336453Y-95997243D02*
X195295977Y-95916291D01*
X195295977Y-95916291D02*
X195255500Y-95875815D01*
X195255500Y-95875815D02*
X195174548Y-95835338D01*
X195174548Y-95835338D02*
X194972167Y-95835338D01*
X194972167Y-95835338D02*
X194891215Y-95875815D01*
X194891215Y-95875815D02*
X194850739Y-95916291D01*
X194850739Y-95916291D02*
X194810262Y-95997243D01*
X194810262Y-95997243D02*
X194810262Y-96240100D01*
X194810262Y-96240100D02*
X194850739Y-96321053D01*
X194850739Y-96321053D02*
X194891215Y-96361529D01*
%TO.C,TP10*%
X193200000Y-99000000D02*
G75*
G02*
X191800000Y-99000000I-700000J0D01*
G01*
X191800000Y-99000000D02*
G75*
G02*
X193200000Y-99000000I700000J0D01*
G01*
%TO.C,TP9*%
X190700000Y-99000000D02*
G75*
G02*
X189300000Y-99000000I-700000J0D01*
G01*
X189300000Y-99000000D02*
G75*
G02*
X190700000Y-99000000I700000J0D01*
G01*
D11*
%TO.C,G\u002A\u002A\u002A*%
G36*
X197750353Y-91231171D02*
G01*
X197750353Y-93040339D01*
X197356277Y-93040339D01*
X196962201Y-93040339D01*
X196962201Y-91231171D01*
X196962201Y-89422003D01*
X197356277Y-89422003D01*
X197750353Y-89422003D01*
X197750353Y-91231171D01*
G37*
G36*
X200329760Y-91231171D02*
G01*
X200329760Y-93040339D01*
X199237095Y-93040339D01*
X198144429Y-93040339D01*
X198144429Y-92700000D01*
X198144429Y-92359662D01*
X198860931Y-92359662D01*
X199577433Y-92359662D01*
X199577433Y-90890832D01*
X199577433Y-89422003D01*
X199953597Y-89422003D01*
X200329760Y-89422003D01*
X200329760Y-91231171D01*
G37*
G36*
X203016643Y-91231171D02*
G01*
X203016643Y-93040339D01*
X202622567Y-93040339D01*
X202228491Y-93040339D01*
X202228491Y-92306698D01*
X202228491Y-91573057D01*
X201538858Y-91563327D01*
X200849224Y-91553597D01*
X200838873Y-91240127D01*
X200828522Y-90926657D01*
X201528507Y-90926657D01*
X202228491Y-90926657D01*
X202228491Y-90514669D01*
X202228491Y-90102680D01*
X201458251Y-90102680D01*
X200688012Y-90102680D01*
X200688012Y-89762342D01*
X200688012Y-89422003D01*
X201852327Y-89422003D01*
X203016643Y-89422003D01*
X203016643Y-91231171D01*
G37*
G36*
X176147814Y-91231171D02*
G01*
X176147814Y-93040339D01*
X174929760Y-93040339D01*
X173711707Y-93040339D01*
X173711707Y-92700000D01*
X173711707Y-92359662D01*
X174517772Y-92359662D01*
X175323837Y-92359662D01*
X175323837Y-91929760D01*
X175323837Y-91499859D01*
X174607335Y-91499859D01*
X173890832Y-91499859D01*
X173890832Y-91195346D01*
X173890832Y-90890832D01*
X174607335Y-90890832D01*
X175323837Y-90890832D01*
X175323837Y-90496756D01*
X175323837Y-90102680D01*
X174535684Y-90102680D01*
X173747532Y-90102680D01*
X173747532Y-89762342D01*
X173747532Y-89422003D01*
X174947673Y-89422003D01*
X176147814Y-89422003D01*
X176147814Y-91231171D01*
G37*
G36*
X190406206Y-91231171D02*
G01*
X190406206Y-93040339D01*
X189206065Y-93040339D01*
X188005924Y-93040339D01*
X188005924Y-92700000D01*
X188005924Y-92359662D01*
X188811989Y-92359662D01*
X189618054Y-92359662D01*
X189618054Y-91929760D01*
X189618054Y-91499859D01*
X188919464Y-91499859D01*
X188220875Y-91499859D01*
X188220875Y-91195346D01*
X188220875Y-90890832D01*
X188919464Y-90890832D01*
X189618054Y-90890832D01*
X189618054Y-90496756D01*
X189618054Y-90102680D01*
X188829902Y-90102680D01*
X188041749Y-90102680D01*
X188041749Y-89762342D01*
X188041749Y-89422003D01*
X189223978Y-89422003D01*
X190406206Y-89422003D01*
X190406206Y-91231171D01*
G37*
G36*
X196388999Y-91249083D02*
G01*
X196388999Y-93040339D01*
X195994923Y-93040339D01*
X195600846Y-93040339D01*
X195600846Y-92416797D01*
X195600846Y-91793254D01*
X195394852Y-91811117D01*
X195268848Y-91812697D01*
X195066216Y-91794063D01*
X194840709Y-91756576D01*
X194615958Y-91705077D01*
X194415594Y-91644403D01*
X194263247Y-91579395D01*
X194173000Y-91521379D01*
X194011731Y-91360451D01*
X193891396Y-91157563D01*
X193813130Y-90924916D01*
X193778065Y-90674712D01*
X193778573Y-90660699D01*
X194565528Y-90660699D01*
X194595868Y-90817383D01*
X194666939Y-90951253D01*
X194776869Y-91043033D01*
X194814367Y-91059505D01*
X194916830Y-91086635D01*
X195056972Y-91101305D01*
X195251552Y-91105727D01*
X195600846Y-91105783D01*
X195600846Y-90640057D01*
X195600846Y-90174330D01*
X195207336Y-90174330D01*
X195111269Y-90174488D01*
X194967630Y-90176941D01*
X194871154Y-90184914D01*
X194805597Y-90201612D01*
X194754715Y-90230243D01*
X194702262Y-90274011D01*
X194634516Y-90355985D01*
X194577787Y-90500474D01*
X194565528Y-90660699D01*
X193778573Y-90660699D01*
X193787337Y-90419151D01*
X193842078Y-90170435D01*
X193943424Y-89940765D01*
X194092507Y-89742342D01*
X194160983Y-89675124D01*
X194241902Y-89609103D01*
X194329642Y-89557881D01*
X194433463Y-89519609D01*
X194562622Y-89492440D01*
X194726376Y-89474525D01*
X194933983Y-89464017D01*
X195194700Y-89459067D01*
X195517786Y-89457828D01*
X196388999Y-89457828D01*
X196388999Y-90640057D01*
X196388999Y-91249083D01*
G37*
G36*
X193406890Y-91240127D02*
G01*
X193416178Y-93040339D01*
X193003858Y-93040339D01*
X192591538Y-93040339D01*
X192591538Y-92413399D01*
X192591538Y-91786460D01*
X192147838Y-91786460D01*
X192035709Y-91785552D01*
X191789370Y-91773514D01*
X191593336Y-91744249D01*
X191432901Y-91693678D01*
X191293357Y-91617718D01*
X191159999Y-91512286D01*
X191111239Y-91466287D01*
X190979296Y-91306742D01*
X190888787Y-91125103D01*
X190833590Y-90906125D01*
X190813739Y-90698829D01*
X191571614Y-90698829D01*
X191618825Y-90864162D01*
X191716208Y-91000641D01*
X191722288Y-91006299D01*
X191769589Y-91043522D01*
X191825201Y-91068253D01*
X191904959Y-91083743D01*
X192024697Y-91093240D01*
X192200249Y-91099996D01*
X192591538Y-91112122D01*
X192591538Y-90643226D01*
X192591538Y-90174330D01*
X192194706Y-90174330D01*
X192085786Y-90174523D01*
X191946059Y-90177062D01*
X191853174Y-90185093D01*
X191791445Y-90201753D01*
X191745182Y-90230178D01*
X191698698Y-90273506D01*
X191629740Y-90366027D01*
X191575083Y-90525748D01*
X191571614Y-90698829D01*
X190813739Y-90698829D01*
X190807584Y-90634559D01*
X190804430Y-90453366D01*
X190822562Y-90230404D01*
X190872504Y-90047981D01*
X190959358Y-89889827D01*
X191088227Y-89739674D01*
X191151308Y-89679338D01*
X191236662Y-89610483D01*
X191328405Y-89556718D01*
X191435855Y-89516143D01*
X191568333Y-89486855D01*
X191735159Y-89466955D01*
X191945653Y-89454540D01*
X192209135Y-89447709D01*
X192534924Y-89444562D01*
X193397602Y-89439916D01*
X193403810Y-90643226D01*
X193406890Y-91240127D01*
G37*
G36*
X180957360Y-89422090D02*
G01*
X181158913Y-89424124D01*
X181302119Y-89429563D01*
X181397385Y-89439346D01*
X181455116Y-89454411D01*
X181485718Y-89475696D01*
X181500752Y-89506158D01*
X181537451Y-89599524D01*
X181591085Y-89746322D01*
X181658754Y-89938296D01*
X181737555Y-90167189D01*
X181824586Y-90424744D01*
X181916947Y-90702706D01*
X181978750Y-90890050D01*
X182070458Y-91166536D01*
X182143805Y-91384316D01*
X182201204Y-91549383D01*
X182245064Y-91667734D01*
X182277799Y-91745362D01*
X182301819Y-91788263D01*
X182319536Y-91802431D01*
X182333362Y-91793861D01*
X182345708Y-91768547D01*
X182346926Y-91765419D01*
X182372313Y-91698365D01*
X182418500Y-91574827D01*
X182481847Y-91404600D01*
X182558714Y-91197475D01*
X182645463Y-90963246D01*
X182738454Y-90711707D01*
X182806419Y-90527819D01*
X182912600Y-90241450D01*
X182998334Y-90012151D01*
X183066308Y-89833323D01*
X183119205Y-89698366D01*
X183159712Y-89600681D01*
X183190512Y-89533669D01*
X183214293Y-89490731D01*
X183233737Y-89465266D01*
X183251531Y-89450676D01*
X183261366Y-89447120D01*
X183332705Y-89437608D01*
X183456619Y-89429862D01*
X183618922Y-89424603D01*
X183805430Y-89422552D01*
X184315938Y-89422003D01*
X184315938Y-91231171D01*
X184315938Y-93040339D01*
X183940258Y-93040339D01*
X183564577Y-93040339D01*
X183555138Y-91853729D01*
X183545698Y-90667120D01*
X183083818Y-91866651D01*
X182621938Y-93066182D01*
X182323034Y-93060924D01*
X182276725Y-93059707D01*
X182141750Y-93051267D01*
X182040130Y-93037645D01*
X181991012Y-93021134D01*
X181974354Y-92985124D01*
X181937352Y-92888006D01*
X181883274Y-92738091D01*
X181814893Y-92543284D01*
X181734981Y-92311488D01*
X181646311Y-92050608D01*
X181551655Y-91768547D01*
X181145416Y-90550494D01*
X181135996Y-91795416D01*
X181126575Y-93040339D01*
X180732963Y-93040339D01*
X180339351Y-93040339D01*
X180339351Y-91231171D01*
X180339351Y-89422003D01*
X180890254Y-89422003D01*
X180957360Y-89422090D01*
G37*
G36*
X178459360Y-89338960D02*
G01*
X178769474Y-89398670D01*
X179039510Y-89497417D01*
X179125010Y-89545190D01*
X179297749Y-89671993D01*
X179467120Y-89829326D01*
X179612524Y-89997081D01*
X179713363Y-90155154D01*
X179773059Y-90299433D01*
X179848011Y-90579956D01*
X179892840Y-90896779D01*
X179907108Y-91231803D01*
X179890375Y-91566929D01*
X179842202Y-91884058D01*
X179762149Y-92165093D01*
X179627927Y-92432653D01*
X179434594Y-92668044D01*
X179191121Y-92856621D01*
X178902480Y-92994568D01*
X178573640Y-93078064D01*
X178488614Y-93089598D01*
X178165495Y-93101023D01*
X177843616Y-93065560D01*
X177536034Y-92987266D01*
X177255808Y-92870201D01*
X177015996Y-92718424D01*
X176829658Y-92535993D01*
X176799768Y-92495409D01*
X176718691Y-92360165D01*
X176647514Y-92209340D01*
X176596951Y-92067469D01*
X176577715Y-91959083D01*
X176602426Y-91948892D01*
X176685658Y-91938980D01*
X176813714Y-91932244D01*
X176972142Y-91929760D01*
X177023034Y-91929810D01*
X177181718Y-91931627D01*
X177287070Y-91937931D01*
X177353667Y-91951253D01*
X177396088Y-91974125D01*
X177428912Y-92009078D01*
X177562449Y-92165110D01*
X177720675Y-92303806D01*
X177884087Y-92387495D01*
X178067906Y-92423443D01*
X178287354Y-92418918D01*
X178387613Y-92406924D01*
X178561539Y-92363437D01*
X178700423Y-92286494D01*
X178827752Y-92165060D01*
X178874968Y-92103995D01*
X178975583Y-91907189D01*
X179044088Y-91667421D01*
X179079972Y-91400169D01*
X179082725Y-91120910D01*
X179051836Y-90845123D01*
X178986795Y-90588286D01*
X178887091Y-90365875D01*
X178840560Y-90298997D01*
X178696120Y-90170853D01*
X178514064Y-90082823D01*
X178309791Y-90035922D01*
X178098700Y-90031161D01*
X177896189Y-90069553D01*
X177717655Y-90152110D01*
X177578498Y-90279844D01*
X177571793Y-90288683D01*
X177478905Y-90409372D01*
X177406291Y-90489164D01*
X177335569Y-90536511D01*
X177248355Y-90559866D01*
X177126270Y-90567680D01*
X176950929Y-90568406D01*
X176568558Y-90568406D01*
X176592730Y-90416150D01*
X176619325Y-90291516D01*
X176725451Y-90028837D01*
X176890257Y-89799418D01*
X177107892Y-89608911D01*
X177372505Y-89462969D01*
X177678248Y-89367244D01*
X177804008Y-89344794D01*
X178130445Y-89320323D01*
X178459360Y-89338960D01*
G37*
G36*
X187576023Y-91217819D02*
G01*
X187576023Y-93040339D01*
X187181947Y-93040339D01*
X186787870Y-93040339D01*
X186787870Y-92399793D01*
X186787870Y-91759247D01*
X186563964Y-91741286D01*
X186531894Y-91738992D01*
X186366400Y-91740534D01*
X186265030Y-91769975D01*
X186263689Y-91770868D01*
X186222039Y-91819079D01*
X186154010Y-91919449D01*
X186066231Y-92061289D01*
X185965328Y-92233909D01*
X185857928Y-92426621D01*
X185525852Y-93036617D01*
X185377665Y-93050131D01*
X185347428Y-93052755D01*
X185182609Y-93063207D01*
X185013966Y-93068604D01*
X184856570Y-93069093D01*
X184725487Y-93064821D01*
X184635788Y-93055934D01*
X184602539Y-93042580D01*
X184605955Y-93032683D01*
X184638479Y-92970221D01*
X184701002Y-92860091D01*
X184788121Y-92711559D01*
X184894430Y-92533886D01*
X185014528Y-92336338D01*
X185068328Y-92248306D01*
X185182923Y-92059425D01*
X185281422Y-91895200D01*
X185358442Y-91764710D01*
X185408601Y-91677035D01*
X185426516Y-91641257D01*
X185404934Y-91616546D01*
X185341363Y-91580037D01*
X185280304Y-91546653D01*
X185141286Y-91439124D01*
X185011380Y-91302826D01*
X184916223Y-91162913D01*
X184910851Y-91152316D01*
X184867745Y-91037313D01*
X184840329Y-90890319D01*
X184824799Y-90691734D01*
X184821794Y-90602672D01*
X185647108Y-90602672D01*
X185664111Y-90781880D01*
X185717836Y-90915104D01*
X185805402Y-90993029D01*
X185860006Y-91007111D01*
X185981067Y-91021354D01*
X186146662Y-91030746D01*
X186341742Y-91034133D01*
X186787870Y-91034133D01*
X186787870Y-90586319D01*
X186787870Y-90138505D01*
X186324142Y-90138505D01*
X186182575Y-90138893D01*
X186031967Y-90141765D01*
X185929138Y-90149194D01*
X185860061Y-90163208D01*
X185810705Y-90185837D01*
X185767043Y-90219112D01*
X185714314Y-90276544D01*
X185675193Y-90365658D01*
X185653090Y-90500557D01*
X185647108Y-90602672D01*
X184821794Y-90602672D01*
X184821660Y-90598713D01*
X184833542Y-90298375D01*
X184883824Y-90052985D01*
X184974955Y-89856729D01*
X185109385Y-89703789D01*
X185289564Y-89588349D01*
X185382331Y-89550744D01*
X185522490Y-89512432D01*
X185700160Y-89481036D01*
X185922153Y-89455809D01*
X186195284Y-89436005D01*
X186526367Y-89420881D01*
X186922215Y-89409688D01*
X187576023Y-89395300D01*
X187576023Y-90586319D01*
X187576023Y-91217819D01*
G37*
G36*
X190623525Y-81348638D02*
G01*
X190522238Y-81542525D01*
X190497254Y-81587995D01*
X190389407Y-81732841D01*
X190246314Y-81844440D01*
X190173031Y-81887047D01*
X190090522Y-81923226D01*
X189996254Y-81946826D01*
X189870269Y-81962555D01*
X189692609Y-81975125D01*
X189680953Y-81975754D01*
X189573006Y-81979201D01*
X189400917Y-81982287D01*
X189171087Y-81984981D01*
X188889918Y-81987253D01*
X188563815Y-81989072D01*
X188199178Y-81990409D01*
X187802411Y-81991232D01*
X187379917Y-81991511D01*
X186938098Y-81991217D01*
X186483357Y-81990319D01*
X186152936Y-81989484D01*
X185665641Y-81988269D01*
X185242108Y-81986932D01*
X184877436Y-81985114D01*
X184566724Y-81982456D01*
X184305071Y-81978600D01*
X184087579Y-81973186D01*
X183909345Y-81965854D01*
X183765470Y-81956246D01*
X183651054Y-81944003D01*
X183561195Y-81928766D01*
X183490994Y-81910175D01*
X183435550Y-81887871D01*
X183389963Y-81861496D01*
X183349332Y-81830689D01*
X183308757Y-81795093D01*
X183263338Y-81754348D01*
X183230667Y-81723529D01*
X183130492Y-81607604D01*
X183053677Y-81490134D01*
X183048524Y-81480086D01*
X183032557Y-81446145D01*
X183019217Y-81408582D01*
X183008282Y-81361212D01*
X182999533Y-81297852D01*
X182992749Y-81212316D01*
X182987709Y-81098421D01*
X182984193Y-80949983D01*
X182981981Y-80760816D01*
X182980851Y-80524737D01*
X182980584Y-80235560D01*
X182980958Y-79887103D01*
X182981751Y-79474040D01*
X183456136Y-79474040D01*
X183456158Y-79559423D01*
X183457160Y-80002434D01*
X183459680Y-80376412D01*
X183463770Y-80683568D01*
X183469478Y-80926114D01*
X183476854Y-81106262D01*
X183485948Y-81226224D01*
X183496809Y-81288212D01*
X183544572Y-81374733D01*
X183656871Y-81454771D01*
X183681595Y-81462290D01*
X183729873Y-81470435D01*
X183802102Y-81477501D01*
X183902619Y-81483553D01*
X184035759Y-81488660D01*
X184205860Y-81492889D01*
X184417256Y-81496307D01*
X184674284Y-81498981D01*
X184981281Y-81500980D01*
X185342582Y-81502371D01*
X185762524Y-81503220D01*
X186245444Y-81503596D01*
X186795676Y-81503565D01*
X187224178Y-81503227D01*
X187783911Y-81502105D01*
X188274316Y-81500216D01*
X188696765Y-81497544D01*
X189052629Y-81494071D01*
X189343278Y-81489780D01*
X189570083Y-81484653D01*
X189734415Y-81478673D01*
X189837644Y-81471821D01*
X189881143Y-81464081D01*
X189917037Y-81440654D01*
X189948161Y-81410889D01*
X189973928Y-81369423D01*
X189994842Y-81310261D01*
X190011408Y-81227408D01*
X190024129Y-81114870D01*
X190033510Y-80966652D01*
X190040055Y-80776759D01*
X190044267Y-80539195D01*
X190046652Y-80247967D01*
X190047713Y-79897079D01*
X190047955Y-79480536D01*
X190047950Y-79384631D01*
X190047659Y-78985004D01*
X190046512Y-78649573D01*
X190043950Y-78372217D01*
X190039411Y-78146810D01*
X190032334Y-77967232D01*
X190022160Y-77827358D01*
X190008326Y-77721065D01*
X189990272Y-77642230D01*
X189967438Y-77584730D01*
X189939262Y-77542443D01*
X189905184Y-77509245D01*
X189864643Y-77479012D01*
X189860409Y-77476244D01*
X189838204Y-77466137D01*
X189803852Y-77457321D01*
X189752777Y-77449707D01*
X189680401Y-77443210D01*
X189582148Y-77437743D01*
X189453439Y-77433220D01*
X189289698Y-77429553D01*
X189086347Y-77426656D01*
X188838810Y-77424442D01*
X188542509Y-77422825D01*
X188192866Y-77421719D01*
X187785306Y-77421035D01*
X187315249Y-77420689D01*
X186778120Y-77420593D01*
X186306442Y-77420678D01*
X185825316Y-77421035D01*
X185407303Y-77421748D01*
X185047827Y-77422901D01*
X184742316Y-77424575D01*
X184486196Y-77426852D01*
X184274893Y-77429816D01*
X184103835Y-77433549D01*
X183968446Y-77438133D01*
X183864155Y-77443651D01*
X183786386Y-77450185D01*
X183730568Y-77457818D01*
X183692125Y-77466632D01*
X183666485Y-77476710D01*
X183646874Y-77486993D01*
X183603600Y-77512815D01*
X183567421Y-77543946D01*
X183537702Y-77586416D01*
X183513808Y-77646256D01*
X183495104Y-77729498D01*
X183480954Y-77842172D01*
X183470724Y-77990310D01*
X183463779Y-78179942D01*
X183459482Y-78417100D01*
X183457199Y-78707815D01*
X183456296Y-79058118D01*
X183456136Y-79474040D01*
X182981751Y-79474040D01*
X182981753Y-79473180D01*
X182982465Y-79160322D01*
X182983610Y-78793540D01*
X182985165Y-78487625D01*
X182987354Y-78236369D01*
X182990399Y-78033564D01*
X182994524Y-77873002D01*
X182999950Y-77748474D01*
X183006901Y-77653772D01*
X183015600Y-77582688D01*
X183026270Y-77529013D01*
X183039133Y-77486541D01*
X183054412Y-77449062D01*
X183098294Y-77363321D01*
X183247492Y-77176440D01*
X183448708Y-77038829D01*
X183462642Y-77032279D01*
X183490840Y-77021696D01*
X183527197Y-77012444D01*
X183576249Y-77004435D01*
X183642530Y-76997579D01*
X183730575Y-76991788D01*
X183844920Y-76986972D01*
X183990099Y-76983041D01*
X184170648Y-76979907D01*
X184391101Y-76977481D01*
X184655994Y-76975672D01*
X184969862Y-76974393D01*
X185337240Y-76973553D01*
X185762662Y-76973063D01*
X186250665Y-76972835D01*
X186805783Y-76972779D01*
X187179155Y-76972799D01*
X187689235Y-76972949D01*
X188135175Y-76973323D01*
X188521502Y-76974010D01*
X188852742Y-76975102D01*
X189133424Y-76976689D01*
X189368073Y-76978862D01*
X189561218Y-76981710D01*
X189717384Y-76985323D01*
X189841100Y-76989794D01*
X189936891Y-76995211D01*
X190009285Y-77001666D01*
X190062809Y-77009248D01*
X190101990Y-77018048D01*
X190131355Y-77028156D01*
X190155430Y-77039663D01*
X190245355Y-77092493D01*
X190404934Y-77227065D01*
X190526124Y-77402680D01*
X190533036Y-77415675D01*
X190548921Y-77448786D01*
X190562266Y-77486273D01*
X190573330Y-77534253D01*
X190582376Y-77598840D01*
X190589664Y-77686151D01*
X190595455Y-77802301D01*
X190600010Y-77953406D01*
X190603591Y-78145583D01*
X190606457Y-78384945D01*
X190608871Y-78677610D01*
X190611093Y-79029693D01*
X190613385Y-79447309D01*
X190613562Y-79480536D01*
X190623525Y-81348638D01*
G37*
G36*
X196134761Y-70556258D02*
G01*
X195773409Y-70826566D01*
X195462619Y-71137748D01*
X195195113Y-71495980D01*
X195166147Y-71541669D01*
X195072389Y-71701172D01*
X194986027Y-71863903D01*
X194914781Y-72013914D01*
X194866371Y-72135255D01*
X194848519Y-72211977D01*
X194857136Y-72241907D01*
X194892753Y-72329423D01*
X194951153Y-72460655D01*
X195027107Y-72623934D01*
X195115386Y-72807590D01*
X195253279Y-73103189D01*
X195481452Y-73670717D01*
X195667116Y-74255053D01*
X195815168Y-74872604D01*
X195930501Y-75539775D01*
X195941245Y-75628705D01*
X195957709Y-75841144D01*
X195969641Y-76103191D01*
X195977127Y-76401381D01*
X195979918Y-76687753D01*
X195980254Y-76722255D01*
X195979109Y-77052349D01*
X195973778Y-77378202D01*
X195964346Y-77686352D01*
X195950902Y-77963335D01*
X195933531Y-78195691D01*
X195912320Y-78369958D01*
X195859126Y-78664040D01*
X195746505Y-79179592D01*
X195607811Y-79718049D01*
X195449730Y-80255773D01*
X195341867Y-80579995D01*
X195278947Y-80769125D01*
X195102148Y-81234468D01*
X195054383Y-81352388D01*
X195003490Y-81481633D01*
X194968810Y-81574169D01*
X194955995Y-81615272D01*
X194978329Y-81647202D01*
X195041632Y-81719518D01*
X195136011Y-81821029D01*
X195251552Y-81940814D01*
X195363567Y-82059501D01*
X195698975Y-82475704D01*
X195984618Y-82928424D01*
X196213207Y-83405022D01*
X196377451Y-83892856D01*
X196420594Y-84085632D01*
X196464258Y-84418537D01*
X196476091Y-84761991D01*
X196457226Y-85100543D01*
X196408798Y-85418744D01*
X196331940Y-85701142D01*
X196227786Y-85932287D01*
X196182492Y-86003408D01*
X196032950Y-86173081D01*
X195863507Y-86283556D01*
X195682114Y-86330720D01*
X195496726Y-86310457D01*
X195429162Y-86285738D01*
X195310068Y-86204284D01*
X195228669Y-86077350D01*
X195175967Y-85893230D01*
X195135505Y-85724430D01*
X195028378Y-85459158D01*
X194867425Y-85219200D01*
X194643810Y-84989554D01*
X194380775Y-84752398D01*
X194165308Y-84550637D01*
X193991589Y-84378033D01*
X193852297Y-84227019D01*
X193740115Y-84090025D01*
X193647721Y-83959482D01*
X193609423Y-83902397D01*
X193530187Y-83793529D01*
X193466479Y-83718156D01*
X193429402Y-83689986D01*
X193382275Y-83705731D01*
X193286252Y-83749116D01*
X193155754Y-83812768D01*
X193004906Y-83889305D01*
X192847834Y-83971348D01*
X192698664Y-84051517D01*
X192571523Y-84122431D01*
X192480536Y-84176711D01*
X192439829Y-84206978D01*
X192434822Y-84229932D01*
X192427906Y-84317300D01*
X192421952Y-84459011D01*
X192417270Y-84644696D01*
X192414169Y-84863985D01*
X192412961Y-85106507D01*
X192411697Y-85376432D01*
X192406404Y-85653154D01*
X192395701Y-85875815D01*
X192378213Y-86054107D01*
X192352566Y-86197723D01*
X192317386Y-86316356D01*
X192271298Y-86419696D01*
X192212930Y-86517437D01*
X192094935Y-86654627D01*
X191934379Y-86779642D01*
X191767090Y-86861187D01*
X191711784Y-86875255D01*
X191595755Y-86897007D01*
X191463047Y-86916092D01*
X191414823Y-86918850D01*
X191295364Y-86921941D01*
X191112729Y-86924813D01*
X190871518Y-86927445D01*
X190576332Y-86929816D01*
X190231769Y-86931907D01*
X189842431Y-86933696D01*
X189412916Y-86935163D01*
X188947826Y-86936286D01*
X188451758Y-86937046D01*
X187929314Y-86937422D01*
X187385093Y-86937392D01*
X186823696Y-86936937D01*
X182399295Y-86931685D01*
X182200053Y-86851267D01*
X182046534Y-86775005D01*
X181842741Y-86611486D01*
X181688875Y-86396677D01*
X181667854Y-86354599D01*
X181645625Y-86295563D01*
X181629466Y-86223529D01*
X181618117Y-86126766D01*
X181610323Y-85993545D01*
X181604827Y-85812134D01*
X181600370Y-85570804D01*
X181599761Y-85531932D01*
X181599480Y-85510238D01*
X182299281Y-85510238D01*
X182315353Y-85730632D01*
X182351180Y-85907711D01*
X182357921Y-85928991D01*
X182391151Y-86018811D01*
X182431741Y-86087697D01*
X182488876Y-86138600D01*
X182571740Y-86174467D01*
X182689517Y-86198248D01*
X182851391Y-86212891D01*
X183066547Y-86221347D01*
X183344167Y-86226564D01*
X184086966Y-86237472D01*
X184087886Y-86233569D01*
X184664165Y-86233569D01*
X186834482Y-86233569D01*
X186848790Y-86233568D01*
X187235668Y-86233106D01*
X187600675Y-86231834D01*
X187937589Y-86229830D01*
X188240188Y-86227170D01*
X188502249Y-86223930D01*
X188717550Y-86220186D01*
X188879867Y-86216015D01*
X188982980Y-86211495D01*
X189020665Y-86206700D01*
X189028669Y-86169226D01*
X189023260Y-86071167D01*
X189001482Y-85939687D01*
X188967636Y-85795069D01*
X188926020Y-85657597D01*
X188880935Y-85547556D01*
X188847278Y-85486806D01*
X188685488Y-85275731D01*
X188467131Y-85079060D01*
X188203893Y-84904859D01*
X187907461Y-84761195D01*
X187589520Y-84656135D01*
X187432057Y-84623266D01*
X187093967Y-84590608D01*
X186728780Y-84596901D01*
X186355263Y-84639571D01*
X185992180Y-84716045D01*
X185658298Y-84823751D01*
X185372383Y-84960115D01*
X185254062Y-85039543D01*
X185041930Y-85240558D01*
X184869670Y-85485500D01*
X184747063Y-85758949D01*
X184683889Y-86045487D01*
X184664165Y-86233569D01*
X184087886Y-86233569D01*
X184151347Y-85964385D01*
X184199971Y-85788980D01*
X184351926Y-85427997D01*
X184563618Y-85104341D01*
X184832854Y-84820115D01*
X185157441Y-84577424D01*
X185535185Y-84378373D01*
X185963893Y-84225067D01*
X185994399Y-84216772D01*
X186211270Y-84174129D01*
X186470865Y-84144052D01*
X186750713Y-84127402D01*
X187028341Y-84125043D01*
X187281278Y-84137834D01*
X187487052Y-84166640D01*
X187672862Y-84211522D01*
X188080180Y-84351061D01*
X188450485Y-84536363D01*
X188778355Y-84762672D01*
X189058365Y-85025227D01*
X189285094Y-85319271D01*
X189453118Y-85640046D01*
X189557013Y-85982793D01*
X189594085Y-86169226D01*
X189603317Y-86215656D01*
X190282406Y-86223611D01*
X190533737Y-86225541D01*
X190749273Y-86223033D01*
X190911268Y-86213264D01*
X191029169Y-86193737D01*
X191112423Y-86161953D01*
X191170477Y-86115415D01*
X191212780Y-86051623D01*
X191248778Y-85968081D01*
X191252917Y-85957052D01*
X191277509Y-85877022D01*
X191292856Y-85787108D01*
X191300004Y-85671914D01*
X191300000Y-85516042D01*
X191293889Y-85304096D01*
X191288229Y-85159588D01*
X191278901Y-84993791D01*
X191266175Y-84873197D01*
X191247430Y-84781986D01*
X191220050Y-84704335D01*
X191181416Y-84624422D01*
X191119955Y-84484174D01*
X191092423Y-84328919D01*
X191118127Y-84171306D01*
X191197631Y-83989181D01*
X191239127Y-83901952D01*
X191291479Y-83709275D01*
X191277416Y-83534474D01*
X191196931Y-83371173D01*
X191136941Y-83271867D01*
X191098137Y-83133830D01*
X191116116Y-82986910D01*
X191190680Y-82813445D01*
X191301834Y-82605147D01*
X191301834Y-79964014D01*
X192449324Y-79964014D01*
X192449730Y-80318793D01*
X192451249Y-80608651D01*
X192454047Y-80838976D01*
X192458290Y-81015160D01*
X192464143Y-81142592D01*
X192471771Y-81226661D01*
X192481341Y-81272759D01*
X192493019Y-81286274D01*
X192497625Y-81285790D01*
X192561699Y-81274644D01*
X192671482Y-81252517D01*
X192806126Y-81223580D01*
X193074452Y-81164316D01*
X193102602Y-80985191D01*
X193115386Y-80879144D01*
X193120884Y-80579995D01*
X193091317Y-80243406D01*
X193029799Y-79885347D01*
X192939444Y-79521788D01*
X192823367Y-79168698D01*
X192684682Y-78842046D01*
X192640840Y-78750809D01*
X192590985Y-78648507D01*
X192550665Y-78573685D01*
X192518866Y-78530760D01*
X192494572Y-78524148D01*
X192476768Y-78558267D01*
X192464439Y-78637533D01*
X192456569Y-78766363D01*
X192452143Y-78949174D01*
X192450146Y-79190381D01*
X192449562Y-79494403D01*
X192449401Y-79818164D01*
X192449377Y-79865656D01*
X192449324Y-79964014D01*
X191301834Y-79964014D01*
X191301834Y-79818164D01*
X191301675Y-79510631D01*
X191300728Y-79028791D01*
X191298970Y-78586776D01*
X191296448Y-78188562D01*
X191293208Y-77838129D01*
X191289297Y-77539453D01*
X191284763Y-77296515D01*
X191279652Y-77113290D01*
X191274012Y-76993758D01*
X191267888Y-76941897D01*
X191265670Y-76936731D01*
X191214763Y-76870497D01*
X191122863Y-76785683D01*
X191008196Y-76699312D01*
X190838453Y-76572678D01*
X190645846Y-76403276D01*
X190432495Y-76190137D01*
X190189557Y-75924894D01*
X189991082Y-75700988D01*
X186298539Y-75700988D01*
X182605996Y-75700988D01*
X182507260Y-75778653D01*
X182490655Y-75791518D01*
X182459549Y-75815914D01*
X182432225Y-75841281D01*
X182408438Y-75872038D01*
X182387944Y-75912600D01*
X182370498Y-75967387D01*
X182355854Y-76040814D01*
X182343769Y-76137300D01*
X182333996Y-76261262D01*
X182326292Y-76417117D01*
X182320411Y-76609283D01*
X182316109Y-76842177D01*
X182313140Y-77120217D01*
X182311260Y-77447820D01*
X182310225Y-77829404D01*
X182309788Y-78269385D01*
X182309705Y-78772181D01*
X182309732Y-79342210D01*
X182309732Y-82591658D01*
X182421251Y-82820571D01*
X182434902Y-82849061D01*
X182496583Y-83006661D01*
X182511889Y-83135010D01*
X182479982Y-83256774D01*
X182400026Y-83394615D01*
X182375432Y-83433653D01*
X182318111Y-83589687D01*
X182327696Y-83751215D01*
X182404267Y-83928101D01*
X182450124Y-84012567D01*
X182478783Y-84096045D01*
X182485942Y-84191580D01*
X182476931Y-84328557D01*
X182461414Y-84444936D01*
X182423569Y-84632285D01*
X182376741Y-84800564D01*
X182363725Y-84843022D01*
X182324052Y-85041046D01*
X182302376Y-85271914D01*
X182299281Y-85510238D01*
X181599480Y-85510238D01*
X181596772Y-85301459D01*
X181596726Y-85127129D01*
X181600777Y-84995413D01*
X181610075Y-84892782D01*
X181625774Y-84805709D01*
X181649023Y-84720664D01*
X181680977Y-84624120D01*
X181720003Y-84504008D01*
X181759351Y-84341222D01*
X181765113Y-84213721D01*
X181737129Y-84103827D01*
X181675238Y-83993859D01*
X181629531Y-83914348D01*
X181577166Y-83724911D01*
X181592360Y-83524957D01*
X181675116Y-83323690D01*
X181696923Y-83285309D01*
X181751129Y-83162753D01*
X181766420Y-83048909D01*
X181743047Y-82920661D01*
X181681260Y-82754891D01*
X181590164Y-82538457D01*
X181602178Y-79164504D01*
X181603615Y-78786235D01*
X181606212Y-78215048D01*
X181609120Y-77710564D01*
X181612388Y-77269698D01*
X181616064Y-76889365D01*
X181620197Y-76566481D01*
X181624835Y-76297959D01*
X181630027Y-76080715D01*
X181635821Y-75911665D01*
X181642267Y-75787722D01*
X181649412Y-75705803D01*
X181657306Y-75662821D01*
X181710611Y-75550457D01*
X181820980Y-75397402D01*
X181957346Y-75259573D01*
X182097503Y-75162223D01*
X182101220Y-75160332D01*
X182209110Y-75110829D01*
X182322797Y-75071291D01*
X182451683Y-75040632D01*
X182605171Y-75017765D01*
X182792662Y-75001604D01*
X183023558Y-74991063D01*
X183307261Y-74985056D01*
X183653174Y-74982497D01*
X183909771Y-74980740D01*
X184148266Y-74977275D01*
X184355640Y-74972406D01*
X184521762Y-74966429D01*
X184636498Y-74959636D01*
X184689716Y-74952325D01*
X184721461Y-74926253D01*
X184785154Y-74846661D01*
X184864125Y-74728987D01*
X184948128Y-74587690D01*
X185137276Y-74250180D01*
X184986339Y-74171212D01*
X184942394Y-74149006D01*
X184761504Y-74071094D01*
X184542102Y-73996268D01*
X184275972Y-73922181D01*
X183954900Y-73846487D01*
X183570669Y-73766838D01*
X183558278Y-73764393D01*
X183317231Y-73714888D01*
X183081301Y-73663106D01*
X182866822Y-73612867D01*
X182690132Y-73567992D01*
X182567566Y-73532299D01*
X182500337Y-73509392D01*
X182085870Y-73339320D01*
X181696592Y-73130694D01*
X181341771Y-72890424D01*
X181030679Y-72625417D01*
X180772584Y-72342580D01*
X180576758Y-72048821D01*
X180567409Y-72031376D01*
X180451621Y-71749081D01*
X180431161Y-71652269D01*
X181080089Y-71652269D01*
X181107130Y-71725071D01*
X181165621Y-71825310D01*
X181248096Y-71941298D01*
X181347093Y-72061344D01*
X181455147Y-72173758D01*
X181555033Y-72267346D01*
X181692844Y-72387813D01*
X181818132Y-72481598D01*
X181953281Y-72564840D01*
X182120669Y-72653678D01*
X182177173Y-72681771D01*
X182320706Y-72747105D01*
X182475125Y-72807657D01*
X182650361Y-72866392D01*
X182856341Y-72926274D01*
X183102995Y-72990265D01*
X183400252Y-73061330D01*
X183758040Y-73142433D01*
X183907858Y-73176361D01*
X184187354Y-73242374D01*
X184462523Y-73310499D01*
X184716917Y-73376527D01*
X184934088Y-73436243D01*
X185097588Y-73485438D01*
X185108916Y-73489123D01*
X185650854Y-73695581D01*
X186179400Y-73958149D01*
X186703207Y-74281638D01*
X187230931Y-74670856D01*
X187328059Y-74746247D01*
X187456579Y-74840399D01*
X187562434Y-74911599D01*
X187629341Y-74948501D01*
X187659420Y-74954957D01*
X187761261Y-74964684D01*
X187919542Y-74972839D01*
X188124764Y-74979083D01*
X188367431Y-74983078D01*
X188638042Y-74984485D01*
X189552097Y-74984485D01*
X189532831Y-74885966D01*
X189530965Y-74876097D01*
X189515583Y-74783887D01*
X189495231Y-74650360D01*
X189473794Y-74500846D01*
X189452208Y-74346265D01*
X189430995Y-74220495D01*
X189404069Y-74116523D01*
X189364896Y-74024109D01*
X189306943Y-73933017D01*
X189223677Y-73833007D01*
X189108563Y-73713842D01*
X188955068Y-73565285D01*
X188756660Y-73377096D01*
X188703913Y-73327153D01*
X188628489Y-73256426D01*
X191981561Y-73256426D01*
X191999079Y-73285128D01*
X192059131Y-73353493D01*
X192165128Y-73467657D01*
X192175792Y-73479085D01*
X192289073Y-73604383D01*
X192396003Y-73731604D01*
X192502552Y-73869369D01*
X192614687Y-74026300D01*
X192738378Y-74211019D01*
X192879594Y-74432149D01*
X193044304Y-74698311D01*
X193218049Y-74984485D01*
X193238475Y-75018129D01*
X193337850Y-75182489D01*
X193482678Y-75420937D01*
X193622076Y-75649274D01*
X193748184Y-75854669D01*
X193853142Y-76024292D01*
X193929086Y-76145312D01*
X193929616Y-76146144D01*
X194021764Y-76294302D01*
X194080847Y-76401968D01*
X194114096Y-76487784D01*
X194128742Y-76570393D01*
X194132017Y-76668434D01*
X194131215Y-76706434D01*
X194093156Y-76907248D01*
X193997796Y-77065283D01*
X193844702Y-77181309D01*
X193790199Y-77206230D01*
X193704539Y-77228109D01*
X193593127Y-77234143D01*
X193433428Y-77226824D01*
X193407622Y-77224985D01*
X193260524Y-77212190D01*
X193135492Y-77197772D01*
X193057264Y-77184513D01*
X193053215Y-77183530D01*
X193022975Y-77185352D01*
X193044178Y-77213508D01*
X193106046Y-77260553D01*
X193197807Y-77319044D01*
X193308685Y-77381536D01*
X193427904Y-77440585D01*
X193629078Y-77513008D01*
X193868907Y-77547100D01*
X194088503Y-77522706D01*
X194280419Y-77444521D01*
X194437208Y-77317239D01*
X194551422Y-77145554D01*
X194615612Y-76934161D01*
X194622332Y-76687753D01*
X194613761Y-76618113D01*
X194546719Y-76341041D01*
X194428246Y-76034320D01*
X194264551Y-75706197D01*
X194061843Y-75364919D01*
X193826332Y-75018732D01*
X193564225Y-74675884D01*
X193281732Y-74344621D01*
X192985061Y-74033190D01*
X192680422Y-73749839D01*
X192374023Y-73502815D01*
X192072074Y-73300363D01*
X192060467Y-73293464D01*
X192003161Y-73261250D01*
X191981561Y-73256426D01*
X188628489Y-73256426D01*
X188445817Y-73085129D01*
X188228349Y-72886978D01*
X188043206Y-72726802D01*
X187882082Y-72598699D01*
X187736674Y-72496770D01*
X187598678Y-72415115D01*
X187459790Y-72347833D01*
X187311706Y-72289025D01*
X187146122Y-72232790D01*
X187105625Y-72220015D01*
X186803290Y-72141563D01*
X186502604Y-72096745D01*
X186186967Y-72084821D01*
X185839775Y-72105047D01*
X185444429Y-72156681D01*
X185288433Y-72178846D01*
X184966090Y-72213055D01*
X184617447Y-72237712D01*
X184261861Y-72252159D01*
X183918690Y-72255742D01*
X183607294Y-72247805D01*
X183347032Y-72227693D01*
X183112076Y-72193369D01*
X182758258Y-72122252D01*
X182374436Y-72026490D01*
X181979723Y-71910956D01*
X181593230Y-71780524D01*
X181559217Y-71768244D01*
X181392773Y-71709484D01*
X181251402Y-71661696D01*
X181149141Y-71629517D01*
X181100031Y-71617587D01*
X181091961Y-71618594D01*
X181080089Y-71652269D01*
X180431161Y-71652269D01*
X180388691Y-71451312D01*
X180376421Y-71149005D01*
X180412614Y-70853094D01*
X180495073Y-70574513D01*
X180549526Y-70466786D01*
X186405566Y-70466786D01*
X186421238Y-70615938D01*
X186489589Y-70748713D01*
X186607572Y-70846079D01*
X186698401Y-70882320D01*
X186863162Y-70893202D01*
X187023911Y-70832680D01*
X187155404Y-70731300D01*
X187255631Y-70593897D01*
X187292377Y-70447210D01*
X187263690Y-70300350D01*
X187167617Y-70162426D01*
X187121918Y-70122093D01*
X186976865Y-70050244D01*
X186820266Y-70044745D01*
X186661214Y-70104677D01*
X186508807Y-70229118D01*
X186445619Y-70320288D01*
X186405566Y-70466786D01*
X180549526Y-70466786D01*
X180621601Y-70324196D01*
X180790000Y-70113077D01*
X180998073Y-69952092D01*
X181132660Y-69892125D01*
X181354995Y-69831485D01*
X181642299Y-69782754D01*
X181991401Y-69746452D01*
X182399134Y-69723096D01*
X182400859Y-69723029D01*
X182650642Y-69712552D01*
X182841266Y-69698306D01*
X182985083Y-69673484D01*
X183094444Y-69631277D01*
X183181699Y-69564878D01*
X183259200Y-69467477D01*
X183339297Y-69332265D01*
X183434340Y-69152436D01*
X183482325Y-69062887D01*
X183749950Y-68637378D01*
X184052736Y-68268076D01*
X184386636Y-67960048D01*
X184681562Y-67742456D01*
X185117864Y-67477853D01*
X185580040Y-67264940D01*
X186080163Y-67098406D01*
X186630305Y-66972941D01*
X186859195Y-66941050D01*
X187150801Y-66917819D01*
X187479545Y-66904704D01*
X187828195Y-66901603D01*
X188179519Y-66908415D01*
X188516285Y-66925039D01*
X188821261Y-66951374D01*
X189077214Y-66987319D01*
X189653220Y-67118882D01*
X190280780Y-67330287D01*
X190885440Y-67609094D01*
X191469527Y-67956247D01*
X191522373Y-67991320D01*
X191672770Y-68090818D01*
X191799606Y-68174268D01*
X191890856Y-68233778D01*
X191934499Y-68261457D01*
X191938970Y-68262941D01*
X191999321Y-68260148D01*
X192111800Y-68241826D01*
X192262134Y-68210604D01*
X192436051Y-68169108D01*
X192555997Y-68139086D01*
X192689359Y-68107910D01*
X192806818Y-68085309D01*
X192922966Y-68069902D01*
X193052395Y-68060305D01*
X193209698Y-68055138D01*
X193409465Y-68053016D01*
X193666291Y-68052558D01*
X193741595Y-68052616D01*
X194041653Y-68055381D01*
X194288684Y-68063676D01*
X194497872Y-68079439D01*
X194684401Y-68104608D01*
X194863456Y-68141120D01*
X195050221Y-68190913D01*
X195259879Y-68255925D01*
X195664717Y-68406378D01*
X196050322Y-68587087D01*
X196403341Y-68790442D01*
X196710751Y-69008942D01*
X196959533Y-69235085D01*
X197073539Y-69364219D01*
X197157325Y-69488780D01*
X197200644Y-69606843D01*
X197212976Y-69737193D01*
X197200512Y-69825721D01*
X197140728Y-69940477D01*
X197026653Y-70053075D01*
X196852889Y-70168513D01*
X196614034Y-70291794D01*
X196553951Y-70320650D01*
X196328777Y-70447210D01*
X196134761Y-70556258D01*
G37*
D10*
%TO.C,TP14*%
X198200000Y-99000000D02*
G75*
G02*
X196800000Y-99000000I-700000J0D01*
G01*
X196800000Y-99000000D02*
G75*
G02*
X198200000Y-99000000I700000J0D01*
G01*
%TO.C,TP13*%
X195700000Y-99000000D02*
G75*
G02*
X194300000Y-99000000I-700000J0D01*
G01*
X194300000Y-99000000D02*
G75*
G02*
X195700000Y-99000000I700000J0D01*
G01*
%TO.C,TP12*%
X180200000Y-96400000D02*
G75*
G02*
X178800000Y-96400000I-700000J0D01*
G01*
X178800000Y-96400000D02*
G75*
G02*
X180200000Y-96400000I700000J0D01*
G01*
%TO.C,TP11*%
X177700000Y-96400000D02*
G75*
G02*
X176300000Y-96400000I-700000J0D01*
G01*
X176300000Y-96400000D02*
G75*
G02*
X177700000Y-96400000I700000J0D01*
G01*
%TD*%
%LPC*%
D12*
X179797800Y-106904846D02*
X196993600Y-106904846D01*
X196993600Y-114423246D01*
X179797800Y-114423246D01*
X179797800Y-106904846D01*
G36*
X179797800Y-106904846D02*
G01*
X196993600Y-106904846D01*
X196993600Y-114423246D01*
X179797800Y-114423246D01*
X179797800Y-106904846D01*
G37*
D13*
%TO.C,J3*%
X191290000Y-61578000D03*
X185510000Y-61578000D03*
D14*
X192720000Y-62108000D03*
D15*
X192720000Y-57928000D03*
D14*
X184080000Y-62108000D03*
D15*
X184080000Y-57928000D03*
%TD*%
D16*
%TO.C,SW3*%
X173625000Y-87150000D03*
X173625000Y-85450000D03*
%TD*%
%TO.C,SW2*%
X176150000Y-60625000D03*
X177850000Y-60625000D03*
%TD*%
D17*
%TO.C,Card1*%
X199978000Y-96773000D03*
X199975000Y-88773000D03*
%TD*%
D16*
%TO.C,SW1*%
X198950000Y-60625000D03*
X200650000Y-60625000D03*
%TD*%
D18*
%TO.C,TP10*%
X192500000Y-99000000D03*
%TD*%
%TO.C,TP9*%
X190000000Y-99000000D03*
%TD*%
%TO.C,TP14*%
X197500000Y-99000000D03*
%TD*%
%TO.C,TP13*%
X195000000Y-99000000D03*
%TD*%
%TO.C,TP12*%
X179500000Y-96400000D03*
%TD*%
%TO.C,TP11*%
X177000000Y-96400000D03*
%TD*%
%LPD*%
M02*
